ply
format ascii 1.0
comment Created by Blender 2.76 (sub 0) - www.blender.org, source file: ''
element vertex 9
property float x
property float y
property float z
property float nx
property float ny
property float nz
property uchar red
property uchar green
property uchar blue
element face 8
property list uchar uint vertex_indices
end_header
1.000000 0.000000 0.000001 -0.000000 -1.000000 0.000000 255 255 0
0.000000 0.000000 0.000001 -0.000000 -1.000000 0.000000 255 255 0
0.707107 0.000000 -0.707107 -0.000000 -1.000000 0.000000 255 255 0
-1.000000 0.000000 -0.000000 0.000000 -1.000000 0.000000 255 255 0
-0.707107 0.000000 -0.707107 0.000000 -1.000000 0.000000 255 255 0
0.707106 0.000000 0.707107 0.000000 -1.000000 0.000000 255 255 0
0.000000 0.000000 1.000000 0.000000 -1.000000 0.000000 255 255 0
0.000000 0.000000 -1.000000 0.000000 -1.000000 0.000000 254 255 0
-0.707107 0.000000 0.707106 -0.000000 -1.000000 0.000000 255 255 0
3 0 1 2
3 1 3 4
3 5 6 1
3 1 4 7
3 6 8 1
3 8 3 1
3 5 1 0
3 1 7 2
