ply
format ascii 1.0
comment Created by Blender 2.76 (sub 0) - www.blender.org, source file: 'throne2.blend'
element vertex 602
property float x
property float y
property float z
property float nx
property float ny
property float nz
property uchar red
property uchar green
property uchar blue
element face 406
property list uchar uint vertex_indices
end_header
-2.187868 0.000000 0.000000 0.978092 -0.208175 0.000000 99 78 53
-2.187869 0.000000 1.198724 0.978092 -0.208175 0.000000 99 78 53
-2.400934 -1.001066 1.198724 0.978092 -0.208175 0.000000 99 78 53
0.835122 -0.330768 0.118734 0.000000 0.000000 1.000000 255 196 93
1.004092 -0.161798 0.118734 0.000000 0.000000 1.000000 255 196 93
1.004092 0.159892 0.118734 0.000000 0.000000 1.000000 255 196 93
1.637347 0.852399 1.198724 0.000000 0.000000 -1.000000 99 78 53
1.637347 0.652399 1.198724 0.000000 0.000000 -1.000000 99 78 53
0.681746 0.998934 1.198724 0.000000 0.000000 -1.000000 99 78 53
1.271241 -0.108635 0.587234 0.000000 -1.000000 0.000000 255 196 93
1.271241 -0.108635 0.666412 0.000000 -1.000000 0.000000 255 196 93
1.057254 -0.108635 0.587234 0.000000 -1.000000 0.000000 255 196 93
1.837347 0.852399 0.000000 0.000000 1.000000 0.000000 255 36 38
1.637347 0.852399 0.000000 0.000000 1.000000 0.000000 255 36 38
1.637347 0.852399 1.198724 0.000000 1.000000 0.000000 255 36 38
0.306925 0.306925 0.908051 1.000000 0.000000 0.000000 255 196 93
0.306925 -0.309058 0.908051 1.000000 0.000000 0.000000 255 196 93
0.306925 -0.309058 0.797465 1.000000 0.000000 0.000000 255 196 93
0.247652 -0.249784 0.651332 -0.000000 0.000000 -1.000000 255 196 93
0.247652 0.247652 0.651332 -0.000000 0.000000 -1.000000 255 196 93
0.482484 -0.484617 0.651332 -0.000000 0.000000 -1.000000 255 196 93
-1.837347 0.852399 0.000000 -0.000000 1.000000 0.000000 255 36 38
-1.637347 0.852399 1.198724 -0.000000 1.000000 0.000000 255 36 38
-1.637347 0.852399 0.000000 -0.000000 1.000000 0.000000 255 36 38
0.852227 0.311758 0.421214 0.000000 0.000000 -1.000000 255 196 93
1.004092 0.159892 0.421214 0.000000 0.000000 -1.000000 255 196 93
0.852227 -0.313663 0.421214 0.000000 0.000000 -1.000000 255 196 93
1.966075 -0.647601 0.000000 -0.000000 0.000000 1.000000 97 74 48
0.835122 -0.330768 0.000000 -0.000000 0.000000 1.000000 97 74 48
1.966075 -0.847601 0.000000 -0.000000 0.000000 1.000000 97 74 48
1.362735 0.198224 0.587234 0.000000 -0.000000 1.000000 255 196 93
0.965760 0.198224 0.587234 0.000000 -0.000000 1.000000 255 196 93
1.057254 0.106730 0.587234 0.000000 -0.000000 1.000000 255 196 93
-1.637347 0.852399 1.198724 -0.000000 0.000000 -1.000000 99 78 53
-0.681746 0.998934 1.198724 -0.000000 0.000000 -1.000000 99 78 53
-1.637347 0.652399 1.198724 -0.000000 0.000000 -1.000000 99 78 53
-2.400934 -1.001066 1.198724 -0.000000 0.000000 -1.000000 99 78 53
-2.187869 0.000000 1.198724 -0.000000 0.000000 -1.000000 99 78 53
-2.166075 -0.647601 1.198724 -0.000000 0.000000 -1.000000 99 78 53
1.324403 -0.161798 0.118734 0.000000 0.000000 1.000000 255 196 93
1.493373 -0.330768 0.118734 0.000000 0.000000 1.000000 255 196 93
1.324403 0.159892 0.118734 0.000000 0.000000 1.000000 255 196 93
-2.400933 -1.001066 0.000000 0.978092 -0.208175 0.000001 99 78 53
-2.187868 0.000000 0.000000 0.978092 -0.208175 0.000001 99 78 53
-2.400934 -1.001066 1.198724 0.978092 -0.208175 0.000001 99 78 53
1.837347 0.852399 1.198724 0.000000 1.000000 -0.000000 255 36 38
2.187868 0.000000 0.000000 0.000000 0.000000 1.000000 99 78 53
1.966075 -0.647601 0.000000 0.000000 0.000000 1.000000 99 78 53
2.166075 -0.647601 0.000000 0.000000 0.000000 1.000000 99 78 53
0.508934 -0.511067 0.183600 1.000000 0.000000 -0.000000 255 196 93
0.508934 -0.511067 0.000000 1.000000 0.000000 -0.000000 255 196 93
0.508934 0.508934 0.183600 1.000000 0.000000 -0.000000 255 196 93
1.362735 0.198224 0.515718 -0.000000 1.000000 0.000000 255 196 93
0.965760 0.198224 0.515718 -0.000000 1.000000 0.000000 255 196 93
1.362735 0.198224 0.587234 -0.000000 1.000000 0.000000 255 196 93
1.324403 0.159892 0.421214 0.000000 -0.000000 -1.000000 255 196 93
1.476269 0.311758 0.421214 0.000000 -0.000000 -1.000000 255 196 93
-1.837347 0.852399 1.198724 -0.000000 -0.000000 -1.000000 99 78 53
-1.975258 0.998934 1.198724 -0.000000 -0.000000 -1.000000 99 78 53
-0.247652 -0.249784 0.651332 0.000000 -0.000000 -1.000000 255 196 93
-0.482484 -0.484617 0.651332 0.000000 -0.000000 -1.000000 255 196 93
-0.247652 0.247652 0.651332 0.000000 -0.000000 -1.000000 255 196 93
-2.166075 -0.847601 1.198724 -0.000000 0.000000 -1.000000 99 78 53
-1.966075 -0.847601 1.198724 -0.000000 0.000000 -1.000000 99 78 53
-1.966075 -0.647601 1.198724 1.000000 0.000001 0.000000 255 36 38
-1.966075 -0.847601 1.198724 1.000000 0.000001 0.000000 255 36 38
-1.966075 -0.647601 0.000000 1.000000 0.000001 0.000000 255 36 38
-1.837347 0.652399 1.198724 0.000000 0.000000 -1.000000 99 78 53
1.493373 0.328863 0.118734 -0.000000 0.000000 1.000000 255 196 93
-1.837347 0.852399 1.198724 -0.000000 1.000000 0.000000 255 36 38
-2.166075 -0.847601 0.000000 0.000000 -0.000001 1.000000 99 78 53
-2.400933 -1.001066 0.000000 0.000000 -0.000001 1.000000 99 78 53
-1.966075 -0.847601 0.000000 0.000000 -0.000001 1.000000 99 78 53
1.362735 -0.200130 0.515718 0.000000 -1.000000 0.000000 255 196 93
1.362735 -0.200130 0.587234 0.000000 -1.000000 0.000000 255 196 93
0.965760 -0.200130 0.515718 0.000000 -1.000000 0.000000 255 196 93
1.837347 0.652399 0.000000 1.000000 -0.000001 0.000000 255 36 38
1.837347 0.852399 0.000000 1.000000 -0.000001 0.000000 255 36 38
1.837347 0.852399 1.198724 1.000000 -0.000001 0.000000 255 36 38
1.271241 0.106730 0.587234 -0.000000 1.000000 0.000000 255 196 93
1.057254 0.106730 0.587234 -0.000000 1.000000 0.000000 255 196 93
1.271241 0.106730 0.666412 -0.000000 1.000000 0.000000 255 196 93
1.004092 0.159892 0.421214 0.000000 1.000000 -0.000000 255 196 93
1.324403 0.159892 0.421214 0.000000 1.000000 -0.000000 255 196 93
1.004092 0.159892 0.118734 0.000000 1.000000 -0.000000 255 196 93
0.482484 0.482484 0.797465 1.000000 -0.000000 0.000000 255 196 93
0.482484 -0.484617 0.797465 1.000000 -0.000000 0.000000 255 196 93
0.482484 -0.484617 0.651332 1.000000 -0.000000 0.000000 255 196 93
-1.837347 0.852399 0.000000 -0.000001 -0.000000 1.000000 99 78 53
-1.975258 0.998934 0.000000 -0.000001 -0.000000 1.000000 99 78 53
-1.837347 0.652399 0.000000 -0.000001 -0.000000 1.000000 99 78 53
-0.482484 0.482484 0.797465 -1.000000 -0.000000 -0.000000 255 196 93
-0.482484 -0.484617 0.651332 -1.000000 -0.000000 -0.000000 255 196 93
-0.482484 -0.484617 0.797465 -1.000000 -0.000000 -0.000000 255 196 93
-1.493373 -0.330768 0.118734 0.000000 0.000000 1.000000 255 196 93
-1.324403 0.159892 0.118734 0.000000 0.000000 1.000000 255 196 93
-1.493373 0.328863 0.118734 0.000000 0.000000 1.000000 255 196 93
-2.166075 -0.647601 0.000000 0.000000 1.000000 -0.000000 255 36 38
-1.966075 -0.647601 1.198724 0.000000 1.000000 -0.000000 255 36 38
-1.966075 -0.647601 0.000000 0.000000 1.000000 -0.000000 255 36 38
2.400933 -1.001066 0.000000 -0.978092 -0.208175 0.000001 99 78 53
2.400934 -1.001066 1.198724 -0.978092 -0.208175 0.000001 99 78 53
2.187868 0.000000 0.000000 -0.978092 -0.208175 0.000001 99 78 53
1.837347 0.852399 1.198724 0.000000 -0.000000 -1.000000 99 78 53
1.975258 0.998934 1.198724 0.000000 -0.000000 -1.000000 99 78 53
2.187868 0.000000 0.000000 -0.978092 -0.208175 0.000000 99 78 53
2.400934 -1.001066 1.198724 -0.978092 -0.208175 0.000000 99 78 53
2.187869 0.000000 1.198724 -0.978092 -0.208175 0.000000 99 78 53
0.247652 -0.249784 0.651332 1.000000 -0.000000 0.000000 255 196 93
0.247652 -0.249784 0.183600 1.000000 -0.000000 0.000000 255 196 93
0.247652 0.247652 0.651332 1.000000 -0.000000 0.000000 255 196 93
2.166075 -0.847601 0.000000 -0.000000 -0.000001 1.000000 99 78 53
1.966075 -0.847601 0.000000 -0.000000 -0.000001 1.000000 99 78 53
2.400933 -1.001066 0.000000 -0.000000 -0.000001 1.000000 99 78 53
0.965760 -0.200130 0.587234 0.000000 -1.000000 0.000000 255 196 93
-2.187868 0.000000 0.000000 -0.000001 0.000000 1.000000 99 78 53
-0.508934 -0.511067 0.183600 -1.000000 0.000000 0.000000 255 196 93
-0.508934 0.508934 0.183600 -1.000000 0.000000 0.000000 255 196 93
-0.508934 -0.511067 0.000000 -1.000000 0.000000 0.000000 255 196 93
-0.165446 0.165446 1.030487 -1.000000 0.000000 0.000000 255 196 93
-0.165446 -0.167579 0.908051 -1.000000 0.000000 0.000000 255 196 93
-0.165446 -0.167579 1.030487 -1.000000 0.000000 0.000000 255 196 93
1.493373 -0.330768 0.118734 1.000000 0.000000 -0.000000 255 196 93
1.493373 -0.330768 0.000000 1.000000 0.000000 -0.000000 255 196 93
1.493373 0.328863 0.118734 1.000000 0.000000 -0.000000 255 196 93
2.400934 -1.001066 1.198724 0.000000 -0.000000 -1.000000 99 78 53
2.166075 -0.647601 1.198724 0.000000 -0.000000 -1.000000 99 78 53
2.187869 0.000000 1.198724 0.000000 -0.000000 -1.000000 99 78 53
1.057254 -0.108635 0.666412 0.000000 -1.000000 0.000000 255 196 93
1.362735 -0.200130 0.587234 -0.000000 0.000000 1.000000 255 196 93
1.271241 -0.108635 0.587234 -0.000000 0.000000 1.000000 255 196 93
0.965760 -0.200130 0.587234 -0.000000 0.000000 1.000000 255 196 93
1.362735 0.198224 0.515718 1.000000 -0.000000 0.000000 255 196 93
1.362735 0.198224 0.587234 1.000000 -0.000000 0.000000 255 196 93
1.362735 -0.200130 0.515718 1.000000 -0.000000 0.000000 255 196 93
1.362735 -0.200130 0.587234 1.000000 0.000000 0.000000 255 196 93
-1.966075 -0.847601 0.000000 0.000001 -1.000000 0.000000 255 36 38
-2.166075 -0.847601 1.198724 0.000001 -1.000000 0.000000 255 36 38
-2.166075 -0.847601 0.000000 0.000001 -1.000000 0.000000 255 36 38
-0.482484 0.482484 0.651332 0.000000 0.000000 -1.000000 255 196 93
-1.837347 0.652399 0.000000 -1.000000 -0.000001 0.000000 255 36 38
-1.837347 0.852399 1.198724 -1.000000 -0.000001 0.000000 255 36 38
-1.837347 0.852399 0.000000 -1.000000 -0.000001 0.000000 255 36 38
1.476269 0.311758 0.515718 1.000000 0.000000 0.000000 255 196 93
1.476269 -0.313663 0.515718 1.000000 0.000000 0.000000 255 196 93
1.476269 -0.313663 0.421214 1.000000 0.000000 0.000000 255 196 93
1.004092 -0.161798 0.118734 -0.000000 -1.000000 -0.000000 255 196 93
1.324403 -0.161798 0.118734 -0.000000 -1.000000 -0.000000 255 196 93
1.324403 -0.161798 0.421214 -0.000000 -1.000000 -0.000000 255 196 93
1.966075 -0.847601 0.000000 -0.000001 -1.000000 -0.000000 255 36 38
2.166075 -0.847601 0.000000 -0.000001 -1.000000 -0.000000 255 36 38
2.166075 -0.847601 1.198724 -0.000001 -1.000000 -0.000000 255 36 38
1.837347 0.652399 1.198724 -0.000000 0.000000 -1.000000 99 78 53
1.966075 -0.647601 1.198724 0.000000 -0.000000 -1.000000 99 78 53
0.482484 0.482484 0.651332 -0.000000 0.000000 -1.000000 255 196 93
-2.187868 0.000000 0.000000 0.000000 0.000000 1.000000 99 78 53
-2.166075 -0.647601 0.000000 0.000000 0.000000 1.000000 99 78 53
-1.966075 -0.647601 0.000000 0.000000 0.000000 1.000000 99 78 53
1.476269 0.311758 0.421214 -0.000000 1.000000 0.000000 255 196 93
0.852227 0.311758 0.421214 -0.000000 1.000000 0.000000 255 196 93
1.476269 0.311758 0.515718 -0.000000 1.000000 0.000000 255 196 93
-0.306925 0.306925 0.908051 -1.000000 0.000000 0.000000 255 196 93
-0.306925 -0.309058 0.797465 -1.000000 0.000000 0.000000 255 196 93
-0.306925 -0.309058 0.908051 -1.000000 0.000000 0.000000 255 196 93
1.324403 -0.161798 0.421214 1.000000 -0.000000 0.000000 255 196 93
1.324403 -0.161798 0.118734 1.000000 -0.000000 0.000000 255 196 93
1.324403 0.159892 0.421214 1.000000 -0.000000 0.000000 255 196 93
-0.247652 -0.249784 0.651332 -1.000000 -0.000000 0.000000 255 196 93
-0.247652 0.247652 0.651332 -1.000000 -0.000000 0.000000 255 196 93
-0.247652 -0.249784 0.183600 -1.000000 -0.000000 0.000000 255 196 93
1.057254 -0.108635 0.587234 0.000000 0.000000 1.000000 255 196 93
-1.966075 -0.647601 1.198724 -0.000000 -0.000000 -1.000000 99 78 53
2.166075 -0.647601 0.000000 -0.000000 1.000000 0.000000 255 36 38
1.966075 -0.647601 0.000000 -0.000000 1.000000 0.000000 255 36 38
1.966075 -0.647601 1.198724 -0.000000 1.000000 0.000000 255 36 38
-1.637347 0.852399 0.000000 1.000000 -0.000000 0.000000 255 36 38
-1.637347 0.652399 1.198724 1.000000 -0.000000 0.000000 255 36 38
-1.637347 0.652399 0.000000 1.000000 -0.000000 0.000000 255 36 38
0.165446 0.165446 1.030487 1.000000 0.000000 -0.000000 255 196 93
0.165446 -0.167579 1.030487 1.000000 0.000000 -0.000000 255 196 93
0.165446 -0.167579 0.908051 1.000000 0.000000 -0.000000 255 196 93
1.975258 0.998934 0.000000 0.000001 0.000000 1.000000 99 78 53
1.837347 0.652399 0.000000 0.000001 0.000000 1.000000 99 78 53
2.187868 0.000000 0.000000 0.000001 0.000000 1.000000 99 78 53
1.362735 0.198224 0.515718 -0.000000 0.000000 1.000000 255 196 93
1.476269 0.311758 0.515718 -0.000000 0.000000 1.000000 255 196 93
0.965760 0.198224 0.515718 -0.000000 0.000000 1.000000 255 196 93
0.000000 -0.484617 0.651332 0.000000 0.000000 -1.000000 255 196 93
1.476269 -0.313663 0.515718 0.000000 -0.000000 1.000000 255 196 93
0.835122 -0.330768 0.000000 -0.000000 -1.000000 -0.000000 255 196 93
1.493373 -0.330768 0.000000 -0.000000 -1.000000 -0.000000 255 196 93
1.493373 -0.330768 0.118734 -0.000000 -1.000000 -0.000000 255 196 93
0.306925 0.306925 0.908051 -0.000000 1.000000 0.000000 255 196 93
0.000000 0.306925 0.797465 -0.000000 1.000000 0.000000 255 196 93
0.000000 0.306925 0.908051 -0.000000 1.000000 0.000000 255 196 93
1.966075 -0.647601 1.198724 -1.000000 0.000001 0.000000 255 36 38
1.966075 -0.647601 0.000000 -1.000000 0.000001 0.000000 255 36 38
1.966075 -0.847601 1.198724 -1.000000 0.000001 0.000000 255 36 38
1.837347 0.652399 0.000000 -0.000000 -0.000000 1.000000 99 78 53
1.637347 0.652399 0.000000 -0.000000 -0.000000 1.000000 99 78 53
1.493373 0.328863 0.000000 -0.000000 -0.000000 1.000000 99 78 53
2.166075 -0.847601 1.198724 0.000000 0.000000 -1.000000 99 78 53
1.966075 -0.847601 1.198724 0.000000 0.000000 -1.000000 99 78 53
1.324403 0.159892 0.118734 0.000000 1.000000 0.000000 255 196 93
0.306925 0.306925 0.797465 1.000000 -0.000000 0.000000 255 196 93
1.637347 0.852399 0.000000 -0.000000 0.000000 1.000000 99 78 53
0.508934 0.508934 0.000000 -0.000000 0.000000 1.000000 99 78 53
-1.004092 -0.161798 0.118734 0.000000 -1.000000 0.000000 255 196 93
-1.324403 -0.161798 0.421214 0.000000 -1.000000 0.000000 255 196 93
-1.324403 -0.161798 0.118734 0.000000 -1.000000 0.000000 255 196 93
0.165446 0.165446 0.908051 0.000000 0.000000 1.000000 255 196 93
0.165446 -0.167579 0.908051 0.000000 0.000000 1.000000 255 196 93
0.306925 -0.309058 0.908051 0.000000 0.000000 1.000000 255 196 93
0.508934 0.508934 0.000000 1.000000 0.000000 0.000000 255 196 93
2.166075 -0.647601 1.198724 -0.000000 1.000000 0.000000 255 36 38
0.482484 0.482484 0.651332 1.000000 -0.000000 0.000000 255 196 93
0.508934 -0.511067 0.000000 0.000000 0.000000 1.000000 97 74 48
0.835122 0.328863 0.000000 0.000000 0.000000 1.000000 97 74 48
1.004092 -0.161798 0.421214 -0.000000 -1.000000 0.000000 255 196 93
1.637347 0.852399 0.000000 -0.000000 0.000001 1.000000 99 78 53
1.381057 0.998934 0.000000 -0.000000 0.000001 1.000000 99 78 53
0.681745 0.998933 0.000000 -0.000000 0.000001 1.000000 99 78 53
0.678038 -1.001066 0.000000 -0.000000 0.000000 1.000000 97 74 48
1.637347 0.652399 0.000000 -0.000000 -1.000000 -0.000000 255 36 38
1.837347 0.652399 0.000000 -0.000000 -1.000000 -0.000000 255 36 38
1.837347 0.652399 1.198724 -0.000000 -1.000000 -0.000000 255 36 38
0.678038 -1.001066 1.198724 0.000000 0.000000 -1.000000 99 78 53
2.187868 0.000000 0.000000 -0.978092 -0.208174 0.000000 99 78 53
2.187869 0.000000 1.198724 -0.978092 -0.208174 0.000000 99 78 53
1.975258 0.998934 0.000000 -0.978092 -0.208174 0.000000 99 78 53
-1.476269 -0.313663 0.421214 -0.000000 -1.000000 -0.000000 255 196 93
-0.852227 -0.313663 0.421214 -0.000000 -1.000000 -0.000000 255 196 93
-1.476269 -0.313663 0.515718 -0.000000 -1.000000 -0.000000 255 196 93
1.966075 -0.847601 1.198724 -0.000001 -1.000000 0.000000 255 36 38
1.381057 0.998934 0.000000 0.000000 -1.000000 0.000000 99 78 53
1.975258 0.998934 1.198724 0.000000 -1.000000 0.000000 99 78 53
1.381057 0.998934 1.198724 0.000000 -1.000000 0.000000 99 78 53
0.835122 0.328863 0.118734 0.000000 -0.000000 1.000000 255 196 93
0.835122 0.328863 0.118734 0.000000 1.000000 -0.000000 255 196 93
1.493373 0.328863 0.118734 0.000000 1.000000 -0.000000 255 196 93
0.835122 0.328863 0.000000 0.000000 1.000000 -0.000000 255 196 93
1.837347 0.652399 1.198724 1.000000 -0.000001 0.000000 255 36 38
0.247652 0.247652 0.183600 1.000000 -0.000000 0.000000 255 196 93
-1.324403 -0.161798 0.421214 0.000000 0.000000 -1.000000 255 196 93
-0.852227 -0.313663 0.421214 0.000000 0.000000 -1.000000 255 196 93
-1.476269 -0.313663 0.421214 0.000000 0.000000 -1.000000 255 196 93
0.681745 0.998933 0.000000 0.000000 -1.000000 0.000000 99 78 53
0.165446 0.165446 0.908051 1.000000 0.000000 0.000000 255 196 93
1.493373 0.328863 0.000000 0.000000 0.000000 1.000000 97 74 48
0.508934 0.508934 0.000000 0.000000 0.000000 1.000000 97 74 48
1.271241 0.106730 0.666412 1.000000 0.000000 0.000000 255 196 93
1.271241 -0.108635 0.666412 1.000000 0.000000 0.000000 255 196 93
1.271241 -0.108635 0.587234 1.000000 0.000000 0.000000 255 196 93
1.004092 -0.161798 0.421214 -1.000000 0.000000 0.000000 255 196 93
1.004092 0.159892 0.421214 -1.000000 0.000000 0.000000 255 196 93
1.004092 -0.161798 0.118734 -1.000000 0.000000 0.000000 255 196 93
0.965760 0.198224 0.515718 -1.000000 0.000000 -0.000000 255 196 93
0.965760 -0.200130 0.515718 -1.000000 0.000000 -0.000000 255 196 93
0.965760 0.198224 0.587234 -1.000000 0.000000 -0.000000 255 196 93
1.381057 0.998934 1.198724 0.000000 0.000000 -1.000000 99 78 53
0.681745 0.998933 0.000000 -0.000000 0.000000 1.000000 99 78 53
0.681746 0.998934 1.198724 0.000000 -1.000000 0.000000 99 78 53
0.306925 0.306925 0.908051 0.000000 -0.000000 1.000000 255 196 93
2.166075 -0.647601 0.000000 0.000001 0.000000 1.000000 99 78 53
2.400933 -1.001066 0.000000 0.000001 0.000000 1.000000 99 78 53
1.637347 0.852399 1.198724 -1.000000 0.000000 0.000000 255 36 38
1.637347 0.852399 0.000000 -1.000000 0.000000 0.000000 255 36 38
1.637347 0.652399 1.198724 -1.000000 0.000000 0.000000 255 36 38
1.975258 0.998934 0.000000 0.000000 -1.000000 0.000000 99 78 53
0.247652 -0.249784 0.183600 0.000000 0.000000 1.000000 255 196 93
0.508934 -0.511067 0.183600 0.000000 0.000000 1.000000 255 196 93
0.247652 0.247652 0.183600 0.000000 0.000000 1.000000 255 196 93
0.852227 0.311758 0.421214 -1.000000 0.000000 -0.000000 255 196 93
0.852227 -0.313663 0.421214 -1.000000 0.000000 -0.000000 255 196 93
0.852227 0.311758 0.515718 -1.000000 0.000000 -0.000000 255 196 93
1.324403 0.159892 0.118734 1.000000 -0.000000 0.000000 255 196 93
2.166075 -0.847601 1.198724 1.000000 0.000000 -0.000000 255 36 38
2.166075 -0.847601 0.000000 1.000000 0.000000 -0.000000 255 36 38
2.166075 -0.647601 1.198724 1.000000 0.000000 -0.000000 255 36 38
0.678038 -1.001066 0.000000 0.000000 -0.000001 1.000000 99 78 53
-0.482484 0.482484 0.797465 0.000000 0.000000 1.000000 255 196 93
-0.482484 -0.484617 0.797465 0.000000 0.000000 1.000000 255 196 93
-0.306925 0.306925 0.797465 0.000000 0.000000 1.000000 255 196 93
-1.476269 0.311758 0.515718 0.000000 0.000000 1.000000 255 196 93
-0.965760 0.198224 0.515718 0.000000 0.000000 1.000000 255 196 93
-0.852227 0.311758 0.515718 0.000000 0.000000 1.000000 255 196 93
-0.852227 0.311758 0.421214 0.000000 1.000000 0.000000 255 196 93
-1.476269 0.311758 0.515718 0.000000 1.000000 0.000000 255 196 93
-0.852227 0.311758 0.515718 0.000000 1.000000 0.000000 255 196 93
-1.975258 0.998934 0.000000 0.000000 0.000001 1.000000 99 78 53
-1.637347 0.852399 0.000000 0.000000 0.000001 1.000000 99 78 53
-1.381057 0.998934 0.000000 0.000000 0.000001 1.000000 99 78 53
-0.965760 -0.200130 0.515718 1.000000 -0.000000 0.000000 255 196 93
-0.965760 0.198224 0.587234 1.000000 -0.000000 0.000000 255 196 93
-0.965760 -0.200130 0.587234 1.000000 -0.000000 0.000000 255 196 93
-1.004092 0.159892 0.421214 0.000000 0.000000 -1.000000 255 196 93
-1.004092 -0.161798 0.421214 0.000000 0.000000 -1.000000 255 196 93
-1.476269 0.311758 0.421214 0.000000 1.000000 0.000000 255 196 93
0.852227 0.311758 0.515718 0.000000 -0.000000 1.000000 255 196 93
-1.493373 -0.330768 0.118734 -1.000000 0.000000 0.000000 255 196 93
-1.493373 0.328863 0.118734 -1.000000 0.000000 0.000000 255 196 93
-1.493373 -0.330768 0.000000 -1.000000 0.000000 0.000000 255 196 93
-0.835122 0.328863 0.118734 1.000000 0.000000 0.000000 255 196 93
-0.835122 -0.330768 0.000000 1.000000 0.000000 0.000000 255 196 93
-0.835122 0.328863 0.000000 1.000000 0.000000 0.000000 255 196 93
-1.362735 0.198224 0.587234 -1.000000 0.000000 0.000000 255 196 93
-1.362735 -0.200130 0.515718 -1.000000 0.000000 0.000000 255 196 93
-1.362735 -0.200130 0.587234 -1.000000 0.000000 0.000000 255 196 93
-0.852227 -0.313663 0.515718 0.000000 -0.000000 1.000000 255 196 93
-1.271241 0.106730 0.587234 0.000000 1.000000 0.000000 255 196 93
-1.271241 0.106730 0.666412 0.000000 1.000000 0.000000 255 196 93
-1.057254 0.106730 0.587234 0.000000 1.000000 0.000000 255 196 93
-0.965760 -0.200130 0.587234 -0.000000 0.000000 1.000000 255 196 93
-1.057254 0.106730 0.587234 -0.000000 0.000000 1.000000 255 196 93
-1.057254 -0.108635 0.587234 -0.000000 0.000000 1.000000 255 196 93
-0.835122 -0.330768 0.118734 0.000000 -1.000000 0.000000 255 196 93
-1.493373 -0.330768 0.118734 0.000000 -1.000000 0.000000 255 196 93
-0.835122 -0.330768 0.000000 0.000000 -1.000000 0.000000 255 196 93
-1.004092 0.159892 0.421214 1.000000 0.000000 -0.000000 255 196 93
-1.004092 -0.161798 0.118734 1.000000 0.000000 -0.000000 255 196 93
-1.004092 0.159892 0.118734 1.000000 0.000000 -0.000000 255 196 93
-0.965760 0.198224 0.587234 0.000000 -0.000000 1.000000 255 196 93
-1.271241 -0.108635 0.587234 0.000000 0.000000 1.000000 255 196 93
-1.476269 0.311758 0.515718 -1.000000 0.000000 0.000000 255 196 93
-1.476269 -0.313663 0.421214 -1.000000 0.000000 0.000000 255 196 93
-1.476269 -0.313663 0.515718 -1.000000 0.000000 0.000000 255 196 93
-1.837347 0.652399 0.000000 0.000000 -0.000000 1.000000 97 74 48
-2.187868 0.000000 0.000000 0.000000 -0.000000 1.000000 97 74 48
-1.493373 0.328863 0.000000 0.000000 -0.000000 1.000000 97 74 48
-0.835122 -0.330768 0.000000 0.000000 0.000000 1.000000 97 74 48
-1.966075 -0.847601 0.000000 0.000000 0.000000 1.000000 97 74 48
-0.678038 -1.001066 0.000000 0.000000 0.000000 1.000000 97 74 48
-1.324403 0.159892 0.421214 -0.000000 -0.000000 -1.000000 255 196 93
-1.476269 0.311758 0.421214 -0.000000 -0.000000 -1.000000 255 196 93
-1.004092 0.159892 0.118734 0.000000 0.000000 1.000000 255 196 93
-0.835122 0.328863 0.118734 0.000000 0.000000 1.000000 255 196 93
-1.493373 -0.330768 0.000000 0.000000 -1.000000 0.000000 255 196 93
-1.476269 0.311758 0.421214 -1.000000 0.000000 -0.000000 255 196 93
-0.852227 -0.313663 0.515718 -0.000000 -1.000000 -0.000000 255 196 93
-1.966075 -0.647601 0.000000 -0.000000 0.000000 1.000000 97 74 48
-1.493373 -0.330768 0.000000 -0.000000 0.000000 1.000000 97 74 48
-1.476269 -0.313663 0.515718 0.000000 -0.000000 1.000000 255 196 93
-1.362735 0.198224 0.515718 0.000000 -0.000000 1.000000 255 196 93
-0.852227 -0.313663 0.421214 1.000000 -0.000000 0.000000 255 196 93
-0.852227 0.311758 0.515718 1.000000 -0.000000 0.000000 255 196 93
-0.852227 -0.313663 0.515718 1.000000 -0.000000 0.000000 255 196 93
-1.271241 -0.108635 0.666412 -0.000000 -1.000000 -0.000000 255 196 93
-1.057254 -0.108635 0.587234 -0.000000 -1.000000 -0.000000 255 196 93
-1.057254 -0.108635 0.666412 -0.000000 -1.000000 -0.000000 255 196 93
-1.362735 0.198224 0.587234 0.000000 -0.000000 1.000000 255 196 93
-1.362735 -0.200130 0.587234 0.000000 -0.000000 1.000000 255 196 93
-1.271241 0.106730 0.587234 0.000000 -0.000000 1.000000 255 196 93
-1.362735 -0.200130 0.587234 -0.000000 -1.000000 -0.000000 255 196 93
-0.965760 -0.200130 0.515718 -0.000000 -1.000000 -0.000000 255 196 93
-0.965760 -0.200130 0.587234 -0.000000 -1.000000 -0.000000 255 196 93
-0.965760 -0.200130 0.515718 -0.000000 0.000000 1.000000 255 196 93
-1.324403 -0.161798 0.421214 -1.000000 -0.000000 0.000000 255 196 93
-1.324403 0.159892 0.421214 -1.000000 -0.000000 0.000000 255 196 93
-1.324403 -0.161798 0.118734 -1.000000 -0.000000 0.000000 255 196 93
-0.965760 0.198224 0.515718 0.000000 1.000000 0.000000 255 196 93
-1.362735 0.198224 0.587234 0.000000 1.000000 0.000000 255 196 93
-0.965760 0.198224 0.587234 0.000000 1.000000 0.000000 255 196 93
-1.362735 -0.200130 0.515718 0.000000 -0.000000 1.000000 255 196 93
-1.837347 0.652399 0.000000 0.000000 -0.000000 1.000000 99 78 53
-1.493373 0.328863 0.000000 0.000000 -0.000000 1.000000 99 78 53
-1.637347 0.652399 0.000000 0.000000 -0.000000 1.000000 99 78 53
-1.057254 -0.108635 0.666412 -0.000000 0.000000 1.000000 255 196 93
-1.057254 0.106730 0.666412 -0.000000 0.000000 1.000000 255 196 93
-1.271241 0.106730 0.666412 -0.000000 0.000000 1.000000 255 196 93
-1.362735 0.198224 0.515718 -1.000000 0.000000 -0.000000 255 196 93
-1.057254 0.106730 0.666412 0.000000 1.000000 0.000000 255 196 93
-1.362735 0.198224 0.515718 0.000000 1.000000 0.000000 255 196 93
-0.852227 0.311758 0.421214 0.000000 0.000000 -1.000000 255 196 93
-1.362735 -0.200130 0.515718 -0.000000 -1.000000 -0.000000 255 196 93
-1.271241 0.106730 0.587234 -1.000000 0.000000 -0.000000 255 196 93
-1.271241 -0.108635 0.587234 -1.000000 0.000000 -0.000000 255 196 93
-1.271241 0.106730 0.666412 -1.000000 0.000000 -0.000000 255 196 93
-1.324403 0.159892 0.421214 0.000000 1.000000 -0.000000 255 196 93
-1.004092 0.159892 0.118734 0.000000 1.000000 -0.000000 255 196 93
-1.324403 0.159892 0.118734 0.000000 1.000000 -0.000000 255 196 93
-0.835122 -0.330768 0.118734 -0.000000 0.000000 1.000000 255 196 93
-1.324403 -0.161798 0.118734 -0.000000 0.000000 1.000000 255 196 93
-1.271241 -0.108635 0.587234 -0.000000 -1.000000 -0.000000 255 196 93
-1.004092 -0.161798 0.118734 -0.000000 0.000000 1.000000 255 196 93
-1.004092 0.159892 0.421214 -0.000000 1.000000 0.000000 255 196 93
-0.852227 0.311758 0.421214 1.000000 -0.000000 0.000000 255 196 93
-0.678038 -1.001066 0.000000 0.000000 -0.000001 1.000000 99 78 53
-0.835122 -0.330768 0.118734 1.000000 0.000000 -0.000000 255 196 93
-1.004092 -0.161798 0.421214 0.000000 -1.000000 0.000000 255 196 93
-1.057254 -0.108635 0.587234 1.000000 -0.000000 0.000000 255 196 93
-1.057254 0.106730 0.666412 1.000000 -0.000000 0.000000 255 196 93
-1.057254 -0.108635 0.666412 1.000000 -0.000000 0.000000 255 196 93
-1.493373 0.328863 0.000000 -1.000000 -0.000000 0.000000 255 196 93
-0.965760 0.198224 0.515718 1.000000 -0.000000 0.000000 255 196 93
-1.057254 0.106730 0.587234 1.000000 -0.000000 0.000000 255 196 93
-1.324403 0.159892 0.118734 -1.000000 -0.000000 0.000000 255 196 93
-1.004092 -0.161798 0.421214 1.000000 0.000000 -0.000000 255 196 93
-1.966075 -0.847601 0.000000 1.000000 0.000001 -0.000000 255 36 38
-1.975258 0.998934 0.000000 -0.000000 0.000001 1.000000 111 91 68
-1.837347 0.852399 0.000000 -0.000000 0.000001 1.000000 99 79 54
-1.637347 0.852399 0.000000 -0.000000 0.000001 1.000000 108 88 64
-2.166075 -0.647601 0.000000 -0.000001 0.000000 1.000000 99 78 53
-2.400933 -1.001066 0.000000 -0.000001 0.000000 1.000000 99 78 53
-0.482484 0.482484 0.651332 -1.000000 -0.000000 0.000000 255 196 93
-0.508934 0.508934 0.000000 0.000000 -0.000000 1.000000 99 78 53
-1.637347 0.652399 0.000000 0.000000 -1.000000 0.000000 255 36 38
-1.837347 0.652399 1.198724 0.000000 -1.000000 0.000000 255 36 38
-1.837347 0.652399 0.000000 0.000000 -1.000000 0.000000 255 36 38
-2.166075 -0.647601 1.198724 0.000000 1.000000 -0.000000 255 36 38
-1.975258 0.998934 0.000000 0.978092 -0.208175 -0.000000 99 78 53
-1.975258 0.998934 1.198724 0.978092 -0.208175 -0.000000 99 78 53
-2.166075 -0.847601 0.000000 -1.000000 -0.000000 0.000000 255 36 38
-2.166075 -0.647601 1.198724 -1.000000 -0.000000 0.000000 255 36 38
-2.166075 -0.647601 0.000000 -1.000000 -0.000000 0.000000 255 36 38
-2.166075 -0.847601 1.198724 -1.000000 0.000000 0.000000 255 36 38
1.057254 -0.108635 0.666412 -0.000000 0.000000 1.000000 255 196 93
1.271241 0.106730 0.666412 -0.000000 0.000000 1.000000 255 196 93
1.057254 0.106730 0.666412 -0.000000 0.000000 1.000000 255 196 93
-0.306925 0.306925 0.908051 0.000000 -0.000000 1.000000 255 196 93
-0.306925 -0.309058 0.908051 0.000000 -0.000000 1.000000 255 196 93
-0.165446 0.165446 0.908051 0.000000 -0.000000 1.000000 255 196 93
-1.837347 0.652399 1.198724 -1.000000 -0.000001 0.000000 255 36 38
0.508934 0.508934 0.183600 -0.000000 0.000000 1.000000 255 196 93
0.000000 0.247652 0.183600 -0.000000 0.000000 1.000000 255 196 93
-1.637347 0.852399 0.000000 0.000000 0.000000 1.000000 99 78 53
-0.681745 0.998933 0.000000 0.000000 0.000000 1.000000 99 78 53
-1.637347 0.852399 1.198724 1.000000 0.000000 -0.000000 255 36 38
-0.247652 -0.249784 0.183600 -0.000000 0.000000 1.000000 255 196 93
-0.247652 0.247652 0.183600 -0.000000 0.000000 1.000000 255 196 93
-0.508934 -0.511067 0.183600 -0.000000 0.000000 1.000000 255 196 93
-1.966075 -0.847601 1.198724 0.000001 -1.000000 0.000000 255 36 38
-0.306925 0.306925 0.797465 -1.000000 0.000000 -0.000000 255 196 93
-2.166075 -0.847601 0.000000 -0.000001 0.000000 1.000000 99 78 53
-2.187868 0.000000 0.000000 0.978092 -0.208174 0.000000 99 78 53
-1.975258 0.998934 0.000000 0.978092 -0.208174 0.000000 99 78 53
-2.187869 0.000000 1.198724 0.978092 -0.208174 0.000000 99 78 53
-1.637347 0.652399 1.198724 0.000000 -1.000000 0.000000 255 36 38
-0.508934 0.508934 0.183600 0.000000 0.000000 1.000000 255 196 93
-0.678038 -1.001066 1.198724 0.000000 0.000000 -1.000000 99 78 53
-0.247652 0.247652 0.183600 -1.000000 -0.000000 0.000000 255 196 93
-0.306925 -0.309058 0.797465 0.000000 -0.000000 1.000000 255 196 93
0.000000 0.000000 1.198724 0.000000 0.000000 -1.000000 99 78 53
0.000000 -1.001066 1.198724 0.000000 0.000000 -1.000000 99 78 53
1.975258 0.998934 0.000000 0.000000 0.000001 1.000000 111 91 68
1.637347 0.852399 0.000000 0.000000 0.000001 1.000000 108 88 64
1.837347 0.852399 0.000000 0.000000 0.000001 1.000000 99 79 54
0.965760 -0.200130 0.587234 -1.000000 -0.000000 -0.000000 255 196 93
-1.381057 0.998934 1.198724 0.000000 0.000000 -1.000000 99 78 53
-0.508934 -0.511067 0.000000 0.000000 0.000000 1.000000 97 74 48
-0.835122 0.328863 0.000000 -0.000000 -0.000000 1.000000 97 74 48
1.057254 0.106730 0.666412 0.000000 1.000000 0.000000 255 196 93
-0.165446 -0.167579 0.908051 0.000000 -0.000000 1.000000 255 196 93
1.476269 0.311758 0.421214 1.000000 -0.000000 0.000000 255 196 93
1.271241 0.106730 0.587234 0.000000 -0.000000 1.000000 255 196 93
0.852227 -0.313663 0.515718 -1.000000 -0.000000 -0.000000 255 196 93
0.482484 0.482484 0.797465 0.000000 -0.000000 1.000000 255 196 93
0.306925 0.306925 0.797465 0.000000 -0.000000 1.000000 255 196 93
0.482484 -0.484617 0.797465 0.000000 -0.000000 1.000000 255 196 93
1.324403 -0.161798 0.421214 0.000000 0.000000 -1.000000 255 196 93
1.476269 -0.313663 0.421214 0.000000 0.000000 -1.000000 255 196 93
0.165446 0.165446 1.030487 -0.000000 1.000000 0.000000 255 196 93
0.000000 0.165446 0.908051 -0.000000 1.000000 0.000000 255 196 93
0.000000 0.165446 1.030487 -0.000000 1.000000 0.000000 255 196 93
-0.508934 0.508934 0.000000 -1.000000 0.000000 0.000000 255 196 93
0.000000 -0.511067 0.183600 -0.000000 -1.000000 0.000000 255 196 93
0.000000 -0.511067 0.000000 -0.000000 -1.000000 0.000000 255 196 93
0.508934 -0.511067 0.183600 -0.000000 -1.000000 0.000000 255 196 93
1.057254 0.106730 0.587234 -1.000000 0.000000 -0.000000 255 196 93
1.057254 -0.108635 0.587234 -1.000000 0.000000 -0.000000 255 196 93
1.057254 0.106730 0.666412 -1.000000 0.000000 -0.000000 255 196 93
-0.678038 -1.001066 0.000000 0.000000 0.000000 1.000000 99 78 53
0.000000 -1.001066 0.000000 0.000000 0.000000 1.000000 99 78 53
-0.508934 -0.511067 0.000000 0.000000 0.000000 1.000000 99 78 53
0.000000 0.998933 0.000000 -0.000000 -1.000000 0.000000 99 78 53
0.000000 0.998934 1.198724 -0.000000 -1.000000 0.000000 99 78 53
-0.681745 0.998933 0.000000 -0.000000 -1.000000 0.000000 99 78 53
0.000000 0.998934 1.198724 0.000000 0.000000 -1.000000 99 78 53
0.000000 0.998933 0.000000 0.000000 0.000000 1.000000 99 78 53
1.837347 0.652399 0.000000 -0.000000 -0.000000 1.000000 97 74 48
2.187868 0.000000 0.000000 -0.000000 -0.000000 1.000000 97 74 48
0.000000 0.247652 0.183600 -0.000000 0.000000 1.000000 255 195 93
0.000000 0.508934 0.183600 -0.000000 0.000000 1.000000 255 196 93
1.493373 -0.330768 0.000000 -0.000000 0.000000 1.000000 97 74 48
1.362735 -0.200130 0.515718 0.000000 -0.000000 1.000000 255 196 93
0.306925 -0.309058 0.797465 0.000000 -1.000000 0.000000 255 196 93
0.306925 -0.309058 0.908051 0.000000 -1.000000 0.000000 255 196 93
0.000000 -0.309058 0.797465 0.000000 -1.000000 0.000000 255 196 93
0.852227 -0.313663 0.515718 0.000000 0.000000 1.000000 255 196 93
0.965760 -0.200130 0.515718 0.000000 0.000000 1.000000 255 196 93
0.508934 -0.511067 0.000000 -0.000000 -1.000000 -0.000000 255 196 93
-0.165446 0.165446 0.908051 -1.000000 0.000000 0.000000 255 196 93
-0.508934 0.508934 0.000000 0.000000 -0.000000 1.000000 97 74 48
0.000000 0.508934 0.000000 0.000000 1.000000 -0.000000 255 196 93
0.508934 0.508934 0.183600 0.000000 1.000000 -0.000000 255 196 93
0.508934 0.508934 0.000000 0.000000 1.000000 -0.000000 255 196 93
1.975258 0.998934 0.000000 -0.000000 0.000001 1.000000 99 78 53
-0.681746 0.998934 1.198724 -0.000000 -1.000000 0.000000 99 78 53
1.057254 -0.108635 0.666412 -1.000000 -0.000000 -0.000000 255 196 93
0.835122 -0.330768 0.118734 -0.000000 -1.000000 0.000000 255 196 93
1.004092 0.159892 0.118734 -1.000000 0.000000 0.000000 255 196 93
0.000000 -0.511067 0.000000 0.000000 -0.000000 1.000000 99 78 53
0.000000 -0.249784 0.651332 0.000000 0.000000 -1.000000 255 196 93
1.637347 0.652399 1.198724 -0.000000 -1.000000 0.000000 255 36 38
0.306925 -0.309058 0.797465 0.000000 -0.000000 1.000000 255 196 93
1.966075 -0.847601 0.000000 -1.000000 0.000001 0.000000 255 36 38
1.271241 -0.108635 0.666412 -0.000000 0.000000 1.000000 255 196 93
1.975258 0.998934 0.000000 -0.978092 -0.208175 -0.000000 99 78 53
1.975258 0.998934 1.198724 -0.978092 -0.208175 -0.000000 99 78 53
2.166075 -0.847601 0.000000 0.000001 0.000000 1.000000 99 78 53
2.166075 -0.647601 0.000000 1.000000 0.000000 0.000000 255 36 38
1.493373 0.328863 0.000000 1.000000 0.000000 0.000000 255 196 93
1.493373 0.328863 0.000000 0.000000 1.000000 0.000000 255 196 93
0.835122 -0.330768 0.118734 -1.000000 0.000000 0.000000 255 196 93
0.835122 0.328863 0.118734 -1.000000 0.000000 0.000000 255 196 93
0.835122 -0.330768 0.000000 -1.000000 0.000000 0.000000 255 196 93
-1.271241 -0.108635 0.666412 -1.000000 0.000000 0.000000 255 196 93
-1.271241 -0.108635 0.666412 0.000000 0.000000 1.000000 255 196 93
-0.835122 0.328863 0.118734 -0.000000 1.000000 0.000000 255 196 93
-0.835122 0.328863 0.000000 -0.000000 1.000000 0.000000 255 196 93
-1.493373 0.328863 0.118734 -0.000000 1.000000 0.000000 255 196 93
-1.493373 0.328863 0.000000 0.000000 1.000000 -0.000000 255 196 93
1.271241 0.106730 0.587234 1.000000 -0.000000 0.000000 255 196 93
1.637347 0.652399 0.000000 -1.000000 0.000000 0.000000 255 36 38
-1.381057 0.998934 0.000000 -0.000000 -1.000000 0.000000 99 78 53
-1.381057 0.998934 1.198724 -0.000000 -1.000000 0.000000 99 78 53
-1.975258 0.998934 1.198724 -0.000000 -1.000000 0.000000 99 78 53
-0.681745 0.998933 0.000000 0.000000 0.000001 1.000000 99 78 53
-1.975258 0.998934 0.000000 -0.000000 -1.000000 0.000000 99 78 53
1.004092 -0.161798 0.421214 0.000000 0.000000 -1.000000 255 196 93
0.000000 0.247652 0.651332 0.000000 1.000000 -0.000000 255 196 93
0.247652 0.247652 0.651332 0.000000 1.000000 -0.000000 255 196 93
0.000000 0.247652 0.183600 0.000000 1.000000 -0.000000 255 196 93
0.247652 0.247652 0.183600 0.000000 1.000000 -0.000000 255 196 93
0.000000 0.306925 0.908051 0.000000 -0.000000 1.000000 255 196 93
0.000000 0.165446 0.908051 0.000000 -0.000000 1.000000 255 196 93
0.000000 -0.167579 0.908051 0.000000 0.000000 1.000000 255 196 93
0.000000 -0.309058 0.908051 0.000000 0.000000 1.000000 255 196 93
0.165446 -0.167579 0.908051 0.000000 -1.000000 0.000000 255 196 93
0.165446 -0.167579 1.030487 0.000000 -1.000000 0.000000 255 196 93
0.000000 -0.167579 0.908051 0.000000 -1.000000 0.000000 255 196 93
0.000000 -0.167579 1.030487 0.000000 -1.000000 0.000000 255 196 93
1.476269 -0.313663 0.421214 0.000000 -1.000000 0.000000 255 196 93
1.476269 -0.313663 0.515718 0.000000 -1.000000 0.000000 255 196 93
0.852227 -0.313663 0.421214 0.000000 -1.000000 0.000000 255 196 93
0.000000 -0.309058 0.797465 0.000000 0.000000 1.000000 255 196 93
0.000000 -0.484617 0.797465 0.000000 0.000000 1.000000 255 196 93
0.000000 0.165446 1.030487 0.000000 -0.000000 1.000000 255 196 93
0.000000 -0.167579 1.030487 0.000000 -0.000000 1.000000 255 196 93
0.165446 0.165446 1.030487 0.000000 -0.000000 1.000000 255 196 93
0.165446 -0.167579 1.030487 -0.000000 0.000000 1.000000 255 196 93
0.852227 -0.313663 0.515718 0.000000 -1.000000 0.000000 255 196 93
0.835122 0.328863 0.000000 -1.000000 0.000000 0.000000 255 196 93
0.165446 0.165446 0.908051 -0.000000 1.000000 0.000000 255 196 93
0.000000 0.247652 0.651332 0.000000 -0.000000 -1.000000 255 196 93
0.000000 0.482484 0.651332 0.000000 0.000000 -1.000000 255 196 93
0.965760 0.198224 0.587234 0.000000 1.000000 0.000000 255 196 93
0.306925 0.306925 0.797465 -0.000000 1.000000 0.000000 255 196 93
0.000000 0.508934 0.183600 0.000000 1.000000 -0.000000 255 196 93
0.852227 0.311758 0.515718 0.000000 1.000000 0.000000 255 196 93
1.837347 0.852399 0.000000 0.000001 -0.000000 1.000000 99 78 53
0.000000 0.508934 0.000000 0.000000 0.000000 1.000000 99 78 53
0.000000 -0.309058 0.908051 0.000000 -1.000000 0.000000 255 196 93
0.000000 0.306925 0.797465 0.000000 -0.000000 1.000000 255 196 93
0.000000 0.482484 0.797465 0.000000 -0.000000 1.000000 255 196 93
0.482484 -0.484617 0.651332 0.000000 -1.000000 0.000000 255 196 93
0.482484 -0.484617 0.797465 0.000000 -1.000000 0.000000 255 196 93
0.000000 -0.484617 0.651332 0.000000 -1.000000 0.000000 255 196 93
0.000000 -0.484617 0.797465 0.000000 -1.000000 0.000000 255 196 93
-0.482484 -0.484617 0.651332 -0.000000 -1.000000 -0.000000 255 196 93
-0.482484 -0.484617 0.797465 -0.000000 -1.000000 -0.000000 255 196 93
-0.165446 -0.167579 0.908051 -0.000000 -1.000000 -0.000000 255 196 93
-0.165446 -0.167579 1.030487 -0.000000 -1.000000 -0.000000 255 196 93
-0.165446 0.165446 1.030487 0.000000 1.000000 -0.000000 255 196 93
-0.247652 0.247652 0.651332 -0.000000 1.000000 0.000000 255 196 93
-0.508934 -0.511067 0.183600 0.000000 -1.000000 0.000000 255 196 93
-0.508934 -0.511067 0.000000 0.000000 -1.000000 0.000000 255 196 93
0.508934 -0.511067 0.000000 0.000000 -0.000000 1.000000 99 78 53
-0.306925 -0.309058 0.908051 -0.000000 -1.000000 -0.000000 255 196 93
-0.247652 0.247652 0.183600 -0.000000 1.000000 0.000000 255 196 93
0.678038 -1.001066 0.000000 -0.000000 0.000000 1.000000 99 78 53
-0.508934 0.508934 0.183600 -0.000000 1.000000 0.000000 255 196 93
-0.165446 0.165446 0.908051 0.000000 1.000000 0.000000 255 196 93
-0.508934 0.508934 0.000000 -0.000000 1.000000 0.000000 255 196 93
-0.165446 -0.167579 1.030487 0.000000 0.000000 1.000000 255 196 93
-0.165446 0.165446 1.030487 0.000000 0.000000 1.000000 255 196 93
-0.306925 0.306925 0.908051 0.000000 1.000000 -0.000000 255 196 93
-0.306925 0.306925 0.797465 0.000000 1.000000 0.000000 255 196 93
-0.306925 -0.309058 0.797465 -0.000000 -1.000000 -0.000000 255 196 93
0.000000 -0.249784 0.183600 0.000000 -1.000000 0.000000 255 196 93
-0.247652 -0.249784 0.651332 0.000000 -1.000000 0.000000 255 196 93
-0.247652 -0.249784 0.183600 0.000000 -1.000000 0.000000 255 196 93
0.000000 -0.249784 0.651332 0.000000 -1.000000 0.000000 255 196 93
0.247652 -0.249784 0.651332 -0.000000 -1.000000 0.000000 255 196 93
0.247652 -0.249784 0.183600 -0.000000 -1.000000 -0.000000 255 196 93
0.000000 -0.511067 0.183600 -0.000000 0.000000 1.000000 255 196 93
0.000000 -0.249784 0.183600 0.000000 -0.000000 1.000000 255 196 93
-0.482484 0.482484 0.651332 0.000000 1.000000 0.000000 255 196 93
-0.482484 0.482484 0.797465 0.000000 1.000000 0.000000 255 196 93
0.000000 0.482484 0.651332 0.000000 1.000000 0.000000 255 196 93
0.000000 0.482484 0.797465 0.000000 1.000000 -0.000000 255 196 93
0.482484 0.482484 0.651332 -0.000000 1.000000 0.000000 255 196 93
0.482484 0.482484 0.797465 -0.000000 1.000000 0.000000 255 196 93
3 0 1 2
3 3 4 5
3 6 7 8
3 9 10 11
3 12 13 14
3 15 16 17
3 18 19 20
3 21 22 23
3 24 25 26
3 27 28 29
3 30 31 32
3 33 34 35
3 36 37 38
3 39 40 41
3 42 43 44
3 45 12 14
3 46 47 48
3 49 50 51
3 52 53 54
3 55 25 56
3 57 58 33
3 59 60 61
3 62 63 36
3 64 65 66
3 57 67 58
3 40 68 41
3 69 22 21
3 70 71 72
3 73 74 75
3 76 77 78
3 79 80 81
3 82 83 84
3 85 86 87
3 88 89 90
3 91 92 93
3 94 95 96
3 97 98 99
3 3 40 39
3 100 101 102
3 103 6 104
3 105 106 107
3 108 109 110
3 111 112 113
3 74 114 75
3 89 115 90
3 116 117 118
3 119 120 121
3 122 123 124
3 125 126 127
3 10 128 11
3 129 130 131
3 132 133 134
3 133 135 134
3 136 137 138
3 61 60 139
3 140 141 142
3 143 144 145
3 146 147 148
3 149 150 151
3 103 104 152
3 126 153 127
3 19 154 20
3 155 156 157
3 158 159 160
3 152 127 7
3 161 162 163
3 164 165 166
3 167 168 169
3 130 170 131
3 38 37 171
3 172 173 174
3 175 176 177
3 67 35 37
3 178 179 180
3 181 182 183
3 184 185 186
3 18 20 187
3 185 184 188
3 189 190 191
3 192 193 194
3 195 196 197
3 198 199 200
3 201 125 202
3 83 203 84
3 204 15 17
3 199 205 206
3 207 208 209
3 210 211 212
3 50 213 51
3 214 172 174
3 215 85 87
3 216 28 217
3 218 146 148
3 219 220 221
3 222 28 216
3 223 224 225
3 202 125 226
3 227 228 229
3 230 231 232
3 233 149 151
3 234 235 236
3 237 3 5
3 238 239 240
3 241 76 78
3 109 242 110
3 243 244 245
3 234 236 246
3 247 178 180
3 217 248 249
3 249 216 217
3 250 251 252
3 253 254 255
3 201 126 125
3 256 257 258
3 104 6 259
3 205 260 206
3 25 24 56
3 246 236 261
3 262 210 212
3 226 153 202
3 263 264 183
3 152 104 127
3 265 266 267
3 268 235 234
3 269 270 271
3 272 273 274
3 165 275 166
3 276 277 278
3 113 112 279
3 280 281 282
3 283 284 285
3 286 287 288
3 289 290 291
3 292 293 294
3 295 244 296
3 297 287 286
3 185 298 186
3 299 300 301
3 302 303 304
3 305 306 307
3 285 284 308
3 309 310 311
3 312 313 314
3 315 316 317
3 318 319 320
3 321 313 312
3 322 312 314
3 296 244 243
3 323 324 325
3 326 327 328
3 329 330 331
3 332 333 295
3 96 334 335
3 243 245 332
3 317 316 336
3 337 324 323
3 232 231 338
3 339 329 340
3 283 341 342
3 343 344 345
3 346 347 348
3 349 350 351
3 95 334 96
3 352 353 354
3 339 340 327
3 351 350 322
3 308 284 355
3 356 357 358
3 359 360 361
3 342 341 362
3 339 330 329
3 362 308 355
3 363 364 365
3 327 340 328
3 341 308 362
3 366 367 368
3 369 306 305
3 311 310 370
3 371 360 359
3 372 244 295
3 350 312 322
3 373 353 352
3 351 313 349
3 374 375 376
3 377 378 379
3 342 284 283
3 380 381 94
3 382 347 346
3 349 313 321
3 380 334 383
3 381 95 94
3 384 378 377
3 385 344 343
3 71 386 72
3 387 303 302
3 388 208 207
3 389 390 391
3 301 300 392
3 393 293 292
3 394 390 389
3 358 357 395
3 396 319 318
3 332 245 333
3 383 381 380
3 66 65 397
3 398 399 400
3 401 115 402
3 403 92 91
3 365 364 404
3 405 406 407
3 408 98 97
3 409 410 1
3 411 412 413
3 414 412 411
3 415 416 417
3 418 419 420
3 421 141 140
3 271 422 423
3 424 404 425
3 67 37 58
3 426 176 175
3 427 428 429
3 430 137 136
3 431 162 161
3 62 36 38
3 365 404 424
3 432 401 402
3 433 434 435
3 436 406 405
3 429 428 437
3 438 63 171
3 169 168 439
3 282 281 440
3 441 442 438
3 4 3 39
3 443 444 445
3 35 441 37
3 34 441 35
3 37 441 171
3 441 438 171
3 335 334 380
3 257 446 258
3 58 447 33
3 63 438 36
3 331 448 329
3 448 449 329
3 80 450 81
3 420 419 451
3 31 131 32
3 452 143 145
3 453 130 129
3 273 454 274
3 455 456 457
3 458 459 26
3 460 461 462
3 30 453 129
3 41 68 5
3 28 222 29
3 118 117 463
3 464 465 466
3 467 468 469
3 470 471 472
3 473 474 475
3 476 441 34
3 425 404 477
3 68 237 5
3 478 248 479
3 480 422 481
3 458 55 459
3 27 482 28
3 184 483 188
3 484 485 486
3 487 488 186
3 465 489 466
3 490 120 119
3 483 488 487
3 27 479 482
3 479 248 482
3 491 449 448
3 492 493 494
3 131 170 32
3 495 220 219
3 475 474 496
3 468 497 469
3 498 189 191
3 254 499 255
3 500 472 471
3 501 18 187
3 259 6 8
3 502 223 225
3 456 503 457
3 270 422 271
3 199 206 200
3 196 504 197
3 55 56 459
3 505 416 415
3 506 107 507
3 508 264 263
3 277 509 278
3 123 510 124
3 239 511 240
3 512 513 514
3 376 375 515
3 516 366 368
3 295 333 372
3 517 518 519
3 449 491 328
3 519 518 520
3 521 250 252
3 453 30 32
3 266 522 267
3 523 524 525
3 290 526 291
3 447 34 33
3 527 523 525
3 475 496 524
3 523 475 524
3 25 528 26
3 298 487 186
3 529 530 531
3 531 530 532
3 533 534 262
3 262 534 210
3 211 535 536
3 212 211 536
3 537 538 539
3 538 540 539
3 541 542 543
3 503 544 545
3 457 503 545
3 546 547 548
3 549 548 547
3 542 550 543
3 513 551 514
3 552 461 460
3 188 483 487
3 19 553 154
3 154 553 554
3 528 458 26
3 53 555 54
3 556 193 192
3 557 493 492
3 159 558 160
3 559 182 181
3 404 560 477
3 485 561 486
3 455 562 456
3 563 562 455
3 564 565 566
3 565 567 566
3 568 566 569
3 569 566 567
3 570 539 571
3 572 462 461
3 529 531 573
3 428 480 437
3 465 574 575
3 500 471 576
3 59 187 60
3 577 486 561
3 7 127 441
3 480 481 437
3 476 8 441
3 246 261 474
3 260 477 206
3 531 578 573
3 579 576 471
3 441 153 226
3 441 226 442
3 473 246 474
3 557 492 580
3 8 7 441
3 127 153 441
3 464 574 465
3 581 572 461
3 492 582 580
3 451 536 535
3 418 420 534
3 281 545 440
3 419 536 451
3 583 547 584
3 533 418 534
3 139 554 553
3 206 477 560
3 61 139 553
3 440 545 544
3 546 584 547
3 571 539 540
3 585 194 193
3 586 585 193
3 501 187 59
3 587 486 577
3 280 282 562
3 563 280 562
3 588 589 590
3 591 589 588
3 591 588 592
3 588 593 592
3 594 427 429
3 595 427 594
3 594 270 269
3 595 594 269
3 596 597 598
3 597 599 598
3 600 598 601
3 601 598 599
