ply
format ascii 1.0
comment Created by Blender 2.76 (sub 0) - www.blender.org, source file: 'cloud.blend'
element vertex 332
property float x
property float y
property float z
property float nx
property float ny
property float nz
property uchar red
property uchar green
property uchar blue
element face 118
property list uchar uint vertex_indices
end_header
-1.760019 1.000000 -0.757023 -0.687477 0.537815 -0.487986 255 255 255
-1.458720 1.000000 -1.181494 -0.687477 0.537815 -0.487986 255 255 255
-2.241022 0.000000 -1.181494 -0.687477 0.537815 -0.487986 255 255 255
3.100363 -0.000000 -0.246437 0.302737 0.677173 -0.670662 255 255 255
4.273293 -0.524370 -0.246437 0.302737 0.677173 -0.670662 255 255 255
3.142174 -0.524369 -0.757023 0.302737 0.677173 -0.670662 255 255 255
-0.135890 -1.537314 -0.246437 -0.074453 -0.777131 0.624920 255 255 255
-0.549595 -1.035434 0.328396 -0.074453 -0.777131 0.624920 255 255 255
-1.458721 -1.000000 0.264149 -0.074453 -0.777131 0.624920 255 255 255
-2.362297 0.022176 0.438858 -0.246939 0.475622 0.844278 255 255 255
-1.432972 0.807422 0.268306 -0.246939 0.475622 0.844278 255 255 255
-2.143749 1.344736 -0.242280 -0.246939 0.475622 0.844278 255 255 255
-0.135888 1.537314 -0.246437 0.000000 0.688847 -0.724907 145 145 145
-0.135889 1.000000 -0.757023 0.000000 0.688847 -0.724907 159 159 159
-1.760019 1.000000 -0.757023 0.000000 0.688847 -0.724907 145 145 145
-0.135888 1.537314 -0.246437 -0.060244 0.644566 0.762172 255 255 255
-2.143749 1.344736 -0.242280 -0.060244 0.644566 0.762172 255 255 255
-1.432972 0.807422 0.268306 -0.060244 0.644566 0.762172 255 255 255
1.186944 0.999999 0.264149 0.000000 0.688847 0.724907 255 255 255
1.897720 1.537314 -0.246437 0.000000 0.688847 0.724907 255 255 255
-0.135888 1.537314 -0.246437 0.000000 0.688847 0.724907 255 255 255
-3.163690 0.030926 -0.505198 -0.483513 0.516751 -0.706529 255 255 255
-2.143749 1.344736 -0.242280 -0.483513 0.516751 -0.706529 255 255 255
-1.760019 1.000000 -0.757023 -0.483513 0.516751 -0.706529 255 255 255
-2.086984 -1.000000 -0.757023 -0.614891 -0.491562 -0.616665 255 255 255
-2.169498 -1.537314 -0.246437 -0.614891 -0.491562 -0.616665 255 255 255
-3.163690 0.030926 -0.505198 -0.614891 -0.491562 -0.616665 255 255 255
-2.169498 -1.537314 -0.246437 -0.303037 -0.414541 0.858093 255 255 255
-1.458721 -1.000000 0.264149 -0.303037 -0.414541 0.858093 255 255 255
-2.362297 0.022176 0.438858 -0.303037 -0.414541 0.858093 255 255 255
-0.135890 -1.537314 -0.246437 -0.000000 -0.688847 -0.724907 255 255 255
-2.169498 -1.537314 -0.246437 -0.000000 -0.688847 -0.724907 255 255 255
-2.086984 -1.000000 -0.757023 -0.000000 -0.688847 -0.724907 255 255 255
1.186943 -1.000000 -0.589580 -0.000000 -0.538232 -0.842797 255 255 255
1.897719 -1.537315 -0.246437 -0.000000 -0.538232 -0.842797 255 255 255
-0.135890 -1.537314 -0.246437 -0.000000 -0.538232 -0.842797 255 255 255
0.833125 -0.862498 0.305529 0.100594 -0.712475 0.694450 255 255 255
-0.549595 -1.035434 0.328396 0.100594 -0.712475 0.694450 255 255 255
-0.135890 -1.537314 -0.246437 0.100594 -0.712475 0.694450 255 255 255
1.969245 -0.000000 -0.589580 -0.104825 0.082005 -0.991104 255 255 255
3.142174 -0.524369 -0.757023 -0.104825 0.082005 -0.991104 255 255 255
2.359873 -1.524369 -0.757023 -0.104825 0.082005 -0.991104 255 255 255
1.897720 1.537314 -0.246437 0.283093 0.221464 -0.933173 255 255 255
3.100363 -0.000000 -0.246437 0.283093 0.221464 -0.933173 255 255 255
1.969245 -0.000000 -0.589580 0.283093 0.221464 -0.933173 255 255 255
1.897720 1.537314 -0.246437 0.525863 0.106294 0.843901 255 255 255
1.186944 0.999999 0.264149 0.525863 0.106294 0.843901 255 255 255
1.419398 -0.129165 0.261523 0.525863 0.106294 0.843901 255 255 255
-0.135889 -0.000000 0.376379 0.023465 -0.055632 0.998176 255 255 255
-0.549595 -1.035434 0.328396 0.023465 -0.055632 0.998176 255 255 255
0.833125 -0.862498 0.305529 0.023465 -0.055632 0.998176 255 255 255
1.186944 0.999999 0.264149 -0.061735 0.191598 0.979530 255 255 255
-0.339049 0.808347 0.205461 -0.061735 0.191598 0.979530 255 255 255
-0.135889 -0.000000 0.376379 -0.061735 0.191598 0.979530 255 255 255
-0.135889 -0.000000 0.376379 0.399124 -0.175577 0.899929 255 255 255
-0.629338 0.186664 0.631645 0.399124 -0.175577 0.899929 255 255 255
-0.764995 -0.456898 0.566251 0.399124 -0.175577 0.899929 255 255 255
-0.135889 1.000000 -0.757023 0.775697 0.496690 -0.389351 255 255 255
0.504425 0.000000 -0.757023 0.775697 0.496690 -0.389351 255 255 255
0.291368 0.000000 -1.181494 0.775697 0.496690 -0.389351 255 255 255
1.186943 1.000000 -0.757023 0.113230 -0.077282 -0.990559 145 145 145
1.969245 -0.000000 -0.589580 0.113230 -0.077282 -0.990559 145 145 145
0.504425 0.000000 -0.757023 0.113230 -0.077282 -0.990559 145 145 145
1.186943 -1.000000 -0.589580 0.125173 -0.080150 -0.988892 145 145 145
-0.135889 -1.000000 -0.757023 0.125173 -0.080150 -0.988892 145 145 145
0.504425 0.000000 -0.757023 0.125173 -0.080150 -0.988892 145 145 145
-0.135888 2.027052 -0.380794 -0.529739 0.299755 -0.793425 255 255 255
0.225604 2.179811 -0.564437 -0.529739 0.299755 -0.793425 255 255 255
0.196364 1.475976 -0.810823 -0.529739 0.299755 -0.793425 255 255 255
0.978553 1.873974 -0.855060 -0.220042 0.330435 -0.917820 255 255 255
0.196364 1.475976 -0.810823 -0.220042 0.330435 -0.917820 255 255 255
0.225604 2.179811 -0.564437 -0.220042 0.330435 -0.917820 255 255 255
1.186943 1.489738 -0.891381 0.398066 0.297905 -0.867639 255 255 255
0.978553 1.873974 -0.855060 0.398066 0.297905 -0.867639 255 255 255
1.383124 2.179811 -0.564437 0.398066 0.297905 -0.867639 255 255 255
1.897720 1.537314 -0.246437 0.657138 0.161963 -0.736164 255 255 255
1.186943 1.489738 -0.891381 0.657138 0.161963 -0.736164 255 255 255
1.383124 2.179811 -0.564437 0.657138 0.161963 -0.736164 255 255 255
3.142174 -0.524369 -0.757023 0.217725 -0.170327 -0.961033 255 255 255
3.774698 -0.975986 -0.533682 0.217725 -0.170327 -0.961033 255 255 255
3.325462 -1.550235 -0.533682 0.217725 -0.170327 -0.961033 255 255 255
2.684588 -0.290321 0.259991 0.112654 -0.105238 0.988046 255 255 255
1.807734 -1.271175 0.255495 0.112654 -0.105238 0.988046 255 255 255
3.325462 -1.550235 0.052726 0.112654 -0.105238 0.988046 255 255 255
1.897719 -1.537315 -0.246437 -0.420941 -0.813326 -0.401633 145 145 145
1.186943 -1.000000 -0.589580 -0.420941 -0.813326 -0.401633 145 145 145
2.359873 -1.524369 -0.757023 -0.420941 -0.813326 -0.401633 145 145 145
0.833125 -0.862498 0.305529 0.035895 -0.036667 0.998683 255 255 255
1.807734 -1.271175 0.255495 0.035895 -0.036667 0.998683 255 255 255
2.684588 -0.290321 0.259991 0.035895 -0.036667 0.998683 255 255 255
3.100363 -0.000000 -0.246437 0.105492 0.822878 0.558340 255 255 255
1.419398 -0.129165 0.261523 0.105492 0.822878 0.558340 255 255 255
2.684588 -0.290321 0.259991 0.105492 0.822878 0.558340 255 255 255
1.897719 -1.537315 -0.246437 -0.377506 -0.844419 0.380059 255 255 255
3.070649 -2.061684 -0.246437 -0.377506 -0.844419 0.380059 255 255 255
1.807734 -1.271175 0.255495 -0.377506 -0.844419 0.380059 255 255 255
3.774698 -0.975986 0.052726 0.496867 -0.388700 0.775910 255 255 255
3.325462 -1.550235 0.052726 0.496867 -0.388700 0.775910 255 255 255
3.579624 -1.814147 -0.242241 0.496867 -0.388700 0.775910 255 255 255
3.774698 -0.975986 -0.533682 0.493266 -0.385883 -0.779605 255 255 255
4.270242 -0.931345 -0.242241 0.493266 -0.385883 -0.779605 255 255 255
3.579624 -1.814147 -0.242241 0.493266 -0.385883 -0.779605 255 255 255
4.273293 -0.524370 -0.246437 0.507757 -0.012689 -0.861407 255 255 255
4.270242 -0.931345 -0.242241 0.507757 -0.012689 -0.861407 255 255 255
3.774698 -0.975986 -0.533682 0.507757 -0.012689 -0.861407 255 255 255
3.070649 -2.061684 -0.246437 0.174731 -0.546895 -0.818764 255 255 255
2.359873 -1.524369 -0.757023 0.174731 -0.546895 -0.818764 255 255 255
3.325462 -1.550235 -0.533682 0.174731 -0.546895 -0.818764 255 255 255
3.070649 -2.061684 -0.246437 0.277940 -0.584411 0.762373 255 255 255
3.579624 -1.814147 -0.242241 0.277940 -0.584411 0.762373 255 255 255
3.325462 -1.550235 0.052726 0.277940 -0.584411 0.762373 255 255 255
4.273293 -0.524370 -0.246437 0.326969 0.243838 0.913036 255 255 255
2.684588 -0.290321 0.259991 0.326969 0.243838 0.913036 255 255 255
3.774698 -0.975986 0.052726 0.326969 0.243838 0.913036 255 255 255
-1.458720 1.000000 -1.181494 0.000000 0.448128 -0.893969 255 255 255
-0.135889 1.000000 -1.181494 0.000000 0.448128 -0.893969 255 255 255
-0.475546 0.571031 -1.396528 0.000000 0.448128 -0.893969 255 255 255
-2.241022 0.000000 -1.181494 -0.343478 0.268704 -0.899901 255 255 255
-1.458720 1.000000 -1.181494 -0.343478 0.268704 -0.899901 255 255 255
-1.230924 0.571031 -1.396528 -0.343478 0.268704 -0.899901 255 255 255
-0.135889 -1.000000 -0.757023 0.709561 -0.509693 -0.486555 255 255 255
-0.426954 -1.000000 -1.181494 0.709561 -0.509693 -0.486555 255 255 255
0.291368 0.000000 -1.181494 0.709561 -0.509693 -0.486555 255 255 255
-0.135889 -1.000000 -0.757023 -0.000000 -1.000000 -0.000000 255 255 255
-2.086984 -1.000000 -0.757023 -0.000000 -1.000000 -0.000000 255 255 255
-1.458721 -1.000000 -1.181494 -0.000000 -1.000000 -0.000000 255 255 255
-0.135889 1.000000 -0.757023 0.000000 1.000000 -0.000000 255 255 255
-0.135889 1.000000 -1.181494 0.000000 1.000000 -0.000000 255 255 255
-1.458720 1.000000 -1.181494 0.000000 1.000000 -0.000000 255 255 255
-2.086984 -1.000000 -0.757023 -0.469771 -0.405262 -0.784269 145 145 145
-2.949664 0.000000 -0.757023 -0.469771 -0.405262 -0.784269 145 145 145
-2.241022 0.000000 -1.181494 -0.469771 -0.405262 -0.784269 145 145 145
-0.671566 -0.571031 -1.396528 0.000000 0.000000 -1.000000 145 145 145
-1.230924 -0.571031 -1.396528 0.000000 0.000000 -1.000000 145 145 145
-1.677643 0.000000 -1.396528 0.000000 0.000000 -1.000000 145 145 145
-0.142018 0.000000 -1.396528 0.000000 -0.000000 -1.000000 145 145 145
-1.230924 0.571031 -1.396528 0.000000 -0.000000 -1.000000 145 145 145
0.291368 0.000000 -1.181494 0.430207 0.251276 -0.867054 255 255 255
-0.142018 0.000000 -1.396528 0.430207 0.251276 -0.867054 255 255 255
-0.475546 0.571031 -1.396528 0.430207 0.251276 -0.867054 255 255 255
-2.241022 0.000000 -1.181494 -0.343478 -0.268704 -0.899901 255 255 255
-1.677643 0.000000 -1.396528 -0.343478 -0.268704 -0.899901 255 255 255
-1.230924 -0.571031 -1.396528 -0.343478 -0.268704 -0.899901 255 255 255
-1.458721 -1.000000 -1.181494 -0.000000 -0.448128 -0.893969 255 255 255
-1.230924 -0.571031 -1.396528 -0.000000 -0.448128 -0.893969 255 255 255
-0.671566 -0.571031 -1.396528 -0.000000 -0.448128 -0.893969 255 255 255
0.291368 0.000000 -1.181494 0.350853 -0.252026 -0.901879 255 255 255
-0.426954 -1.000000 -1.181494 0.350853 -0.252026 -0.901879 255 255 255
-0.671566 -0.571031 -1.396528 0.350853 -0.252026 -0.901879 255 255 255
-2.949664 0.000000 -0.757023 -0.438429 0.521574 -0.731943 145 145 145
-1.760019 1.000000 -0.757023 -0.438429 0.521574 -0.731943 145 145 145
-2.241022 0.000000 -1.181494 -0.438429 0.521574 -0.731943 145 145 145
1.969245 -0.000000 -0.589580 0.209951 0.690621 -0.692071 255 255 255
3.100363 -0.000000 -0.246437 0.209951 0.690621 -0.692071 255 255 255
3.142174 -0.524369 -0.757023 0.209951 0.690621 -0.692071 255 255 255
-2.169498 -1.537314 -0.246437 -0.000000 -0.688847 0.724907 255 255 255
-0.135890 -1.537314 -0.246437 -0.000000 -0.688847 0.724907 255 255 255
-1.458721 -1.000000 0.264149 -0.000000 -0.688847 0.724907 255 255 255
-3.163690 0.030926 -0.505198 -0.759880 0.508992 0.404363 255 255 255
-2.896610 0.000492 0.035006 -0.759880 0.508992 0.404363 255 255 255
-2.143749 1.344736 -0.242280 -0.759880 0.508992 0.404363 255 255 255
-2.143749 1.344736 -0.242280 -0.078006 0.800484 -0.594256 255 255 255
-0.135888 1.537314 -0.246437 -0.078006 0.800484 -0.594256 255 255 255
-1.760019 1.000000 -0.757023 -0.078006 0.800484 -0.594256 255 255 255
-0.339049 0.808347 0.205461 0.048679 0.516427 0.854946 255 255 255
-0.135888 1.537314 -0.246437 0.048679 0.516427 0.854946 255 255 255
-1.432972 0.807422 0.268306 0.048679 0.516427 0.854946 255 255 255
-0.339049 0.808347 0.205461 -0.100390 0.544287 0.832871 255 255 255
1.186944 0.999999 0.264149 -0.100390 0.544287 0.832871 255 255 255
-0.135888 1.537314 -0.246437 -0.100390 0.544287 0.832871 255 255 255
1.186943 1.000000 -0.757023 -0.000000 -0.264569 -0.964367 145 145 145
-0.135889 1.000000 -0.757023 -0.000000 -0.264569 -0.964367 145 145 145
1.186943 1.489738 -0.891381 -0.000000 -0.264569 -0.964367 145 145 145
-2.949664 0.000000 -0.757023 -0.541748 0.644488 -0.539577 145 145 145
-3.163690 0.030926 -0.505198 -0.541748 0.644488 -0.539577 145 145 145
-1.760019 1.000000 -0.757023 -0.541748 0.644488 -0.539577 145 145 145
-2.949664 0.000000 -0.757023 -0.659712 -0.569120 -0.490797 145 145 145
-2.086984 -1.000000 -0.757023 -0.659712 -0.569120 -0.490797 145 145 145
-3.163690 0.030926 -0.505198 -0.659712 -0.569120 -0.490797 145 145 145
-3.163690 0.030926 -0.505198 -0.809714 -0.451464 0.374892 255 255 255
-2.169498 -1.537314 -0.246437 -0.809714 -0.451464 0.374892 255 255 255
-2.896610 0.000492 0.035006 -0.809714 -0.451464 0.374892 255 255 255
-0.135889 -1.000000 -0.757023 -0.000000 -0.688847 -0.724907 145 145 145
-0.135890 -1.537314 -0.246437 -0.000000 -0.688847 -0.724907 145 145 145
-2.086984 -1.000000 -0.757023 -0.000000 -0.688847 -0.724907 145 145 145
-0.135889 -1.000000 -0.757023 0.091374 -0.685965 -0.721874 145 145 145
1.186943 -1.000000 -0.589580 0.091374 -0.685965 -0.721874 145 145 145
-0.135890 -1.537314 -0.246437 0.091374 -0.685965 -0.721874 145 145 145
1.897719 -1.537315 -0.246437 -0.000000 -0.633130 0.774045 255 255 255
0.833125 -0.862498 0.305529 -0.000000 -0.633130 0.774045 255 255 255
-0.135890 -1.537314 -0.246437 -0.000000 -0.633130 0.774045 255 255 255
1.186943 -1.000000 -0.589580 -0.104825 0.082005 -0.991104 255 255 255
1.186943 1.000000 -0.757023 0.458088 0.213896 -0.862788 255 255 255
1.897720 1.537314 -0.246437 0.458088 0.213896 -0.862788 255 255 255
1.969245 -0.000000 -0.589580 0.458088 0.213896 -0.862788 255 255 255
3.100363 -0.000000 -0.246437 0.268035 0.209684 0.940314 255 255 255
1.897720 1.537314 -0.246437 0.268035 0.209684 0.940314 255 255 255
1.419398 -0.129165 0.261523 0.268035 0.209684 0.940314 255 255 255
1.419398 -0.129165 0.261523 0.073723 0.000907 0.997278 255 255 255
-0.135889 -0.000000 0.376379 0.073723 0.000907 0.997278 255 255 255
0.833125 -0.862498 0.305529 0.073723 0.000907 0.997278 255 255 255
1.419398 -0.129165 0.261523 0.074721 0.013063 0.997119 255 255 255
1.186944 0.999999 0.264149 0.074721 0.013063 0.997119 255 255 255
-0.135889 -0.000000 0.376379 0.074721 0.013063 0.997119 255 255 255
-0.135889 -0.000000 0.376379 0.525431 0.300374 0.796051 255 255 255
-0.339049 0.808347 0.205461 0.525431 0.300374 0.796051 255 255 255
-0.629338 0.186664 0.631645 0.525431 0.300374 0.796051 255 255 255
-0.135889 1.000000 -1.181494 0.919582 0.392897 0.000000 255 255 255
-0.135889 1.000000 -0.757023 0.919582 0.392897 0.000000 255 255 255
0.291368 0.000000 -1.181494 0.919582 0.392897 0.000000 255 255 255
-0.135889 1.000000 -0.757023 0.000000 0.000000 -1.000000 145 145 145
1.186943 1.000000 -0.757023 0.000000 0.000000 -1.000000 145 145 145
0.504425 0.000000 -0.757023 0.000000 0.000000 -1.000000 145 145 145
1.969245 -0.000000 -0.589580 0.113124 -0.088497 -0.989632 145 145 145
1.186943 -1.000000 -0.589580 0.113124 -0.088497 -0.989632 145 145 145
0.504425 0.000000 -0.757023 0.113124 -0.088497 -0.989632 145 145 145
-0.135888 2.027052 -0.380794 0.057634 0.479545 0.875623 255 255 255
1.897720 1.537314 -0.246437 0.057634 0.479545 0.875623 255 255 255
1.383124 2.179811 -0.564437 0.057634 0.479545 0.875623 255 255 255
1.186943 1.000000 -0.757023 0.665973 -0.197363 -0.719394 255 255 255
1.186943 1.489738 -0.891381 0.665973 -0.197363 -0.719394 255 255 255
1.897720 1.537314 -0.246437 0.665973 -0.197363 -0.719394 255 255 255
-0.135888 1.537314 -0.246437 0.000000 0.264569 0.964367 255 255 255
1.897720 1.537314 -0.246437 0.000000 0.264569 0.964367 255 255 255
-0.135888 2.027052 -0.380794 0.000000 0.264569 0.964367 255 255 255
1.383124 2.179811 -0.564437 0.000000 0.688847 -0.724907 255 255 255
0.978553 1.873974 -0.855060 0.000000 0.688847 -0.724907 255 255 255
0.225604 2.179811 -0.564437 0.000000 0.688847 -0.724907 255 255 255
0.225604 2.179811 -0.564437 0.000000 0.768791 0.639500 255 255 255
-0.135888 2.027052 -0.380794 0.000000 0.768791 0.639500 255 255 255
1.383124 2.179811 -0.564437 0.000000 0.768791 0.639500 255 255 255
0.978553 1.873974 -0.855060 -0.081643 0.049814 -0.995416 255 255 255
1.186943 1.489738 -0.891381 -0.081643 0.049814 -0.995416 255 255 255
0.196364 1.475976 -0.810823 -0.081643 0.049814 -0.995416 255 255 255
2.359873 -1.524369 -0.757023 0.217725 -0.170327 -0.961033 255 255 255
3.774698 -0.975986 0.052726 0.125794 -0.098409 0.987163 255 255 255
2.684588 -0.290321 0.259991 0.125794 -0.098409 0.987163 255 255 255
3.325462 -1.550235 0.052726 0.125794 -0.098409 0.987163 255 255 255
3.070649 -2.061684 -0.246437 -0.379907 -0.849790 -0.365416 145 145 145
1.897719 -1.537315 -0.246437 -0.379907 -0.849790 -0.365416 145 145 145
2.359873 -1.524369 -0.757023 -0.379907 -0.849790 -0.365416 145 145 145
1.419398 -0.129165 0.261523 0.008024 0.053506 0.998535 255 255 255
0.833125 -0.862498 0.305529 0.008024 0.053506 0.998535 255 255 255
2.684588 -0.290321 0.259991 0.008024 0.053506 0.998535 255 255 255
4.273293 -0.524370 -0.246437 0.309680 0.692703 0.651353 255 255 255
3.100363 -0.000000 -0.246437 0.309680 0.692703 0.651353 255 255 255
2.684588 -0.290321 0.259991 0.309680 0.692703 0.651353 255 255 255
0.833125 -0.862498 0.305529 -0.338410 -0.855121 0.392743 255 255 255
1.897719 -1.537315 -0.246437 -0.338410 -0.855121 0.392743 255 255 255
1.807734 -1.271175 0.255495 -0.338410 -0.855121 0.392743 255 255 255
4.270242 -0.931345 -0.242241 0.496867 -0.388700 0.775910 255 255 255
3.325462 -1.550235 -0.533682 0.493265 -0.385883 -0.779605 255 255 255
3.774698 -0.975986 -0.533682 0.493265 -0.385883 -0.779605 255 255 255
3.579624 -1.814147 -0.242241 0.493265 -0.385883 -0.779605 255 255 255
3.142174 -0.524369 -0.757023 0.408223 0.124512 -0.904351 255 255 255
4.273293 -0.524370 -0.246437 0.408223 0.124512 -0.904351 255 255 255
3.774698 -0.975986 -0.533682 0.408223 0.124512 -0.904351 255 255 255
3.579624 -1.814147 -0.242241 0.285218 -0.573432 -0.768002 255 255 255
3.070649 -2.061684 -0.246437 0.285218 -0.573432 -0.768002 255 255 255
3.325462 -1.550235 -0.533682 0.285218 -0.573432 -0.768002 255 255 255
1.807734 -1.271175 0.255495 0.020488 -0.512380 0.858514 255 255 255
3.070649 -2.061684 -0.246437 0.020488 -0.512380 0.858514 255 255 255
3.325462 -1.550235 0.052726 0.020488 -0.512380 0.858514 255 255 255
4.270242 -0.931345 -0.242241 0.511143 0.005030 0.859481 255 255 255
4.273293 -0.524370 -0.246437 0.511143 0.005030 0.859481 255 255 255
3.774698 -0.975986 0.052726 0.511143 0.005030 0.859481 255 255 255
-1.230924 0.571031 -1.396528 0.000000 0.448128 -0.893969 255 255 255
-1.677643 0.000000 -1.396528 -0.343478 0.268704 -0.899901 255 255 255
0.504425 0.000000 -0.757023 0.775697 -0.496690 -0.389351 255 255 255
-0.135889 -1.000000 -0.757023 0.775697 -0.496690 -0.389351 255 255 255
0.291368 0.000000 -1.181494 0.775697 -0.496690 -0.389351 255 255 255
-0.426954 -1.000000 -1.181494 -0.000000 -1.000000 0.000000 255 255 255
-1.760019 1.000000 -0.757023 0.000000 1.000000 0.000000 255 255 255
-1.458721 -1.000000 -1.181494 -0.512806 -0.401169 -0.759008 145 145 145
-2.086984 -1.000000 -0.757023 -0.512806 -0.401169 -0.759008 145 145 145
-2.241022 0.000000 -1.181494 -0.512806 -0.401169 -0.759008 145 145 145
-0.475546 0.571031 -1.396528 0.000000 0.000000 -1.000000 146 146 146
-0.135889 1.000000 -1.181494 0.375382 0.160384 -0.912888 255 255 255
0.291368 0.000000 -1.181494 0.375382 0.160384 -0.912888 255 255 255
-0.475546 0.571031 -1.396528 0.375382 0.160384 -0.912888 255 255 255
-1.458721 -1.000000 -1.181494 -0.343478 -0.268703 -0.899901 255 255 255
-2.241022 0.000000 -1.181494 -0.343478 -0.268703 -0.899901 255 255 255
-1.230924 -0.571031 -1.396528 -0.343478 -0.268703 -0.899901 255 255 255
-0.426954 -1.000000 -1.181494 -0.000000 -0.448128 -0.893969 255 255 255
-0.142018 0.000000 -1.396528 0.410929 -0.381077 -0.828201 255 255 255
0.291368 0.000000 -1.181494 0.410929 -0.381077 -0.828201 255 255 255
-0.671566 -0.571031 -1.396528 0.410929 -0.381077 -0.828201 255 255 255
-0.135889 1.000000 -0.757023 -0.080147 -0.056538 -0.995178 146 146 146
0.196364 1.475976 -0.810823 -0.080147 -0.056538 -0.995178 145 145 145
1.186943 1.489738 -0.891381 -0.080147 -0.056538 -0.995178 145 145 145
-0.135888 1.537314 -0.246437 -0.860222 -0.134909 -0.491749 255 255 255
-0.135888 2.027052 -0.380794 -0.860222 -0.134909 -0.491749 255 255 255
0.196364 1.475976 -0.810823 -0.860222 -0.134909 -0.491749 255 255 255
-0.135889 1.000000 -0.757023 -0.741215 0.462401 -0.486606 159 159 159
-0.135888 1.537314 -0.246437 -0.741215 0.462401 -0.486606 145 145 145
0.196364 1.475976 -0.810823 -0.741215 0.462401 -0.486606 145 145 145
-2.896610 0.000492 0.035006 -0.549311 0.452551 0.702464 255 255 255
-2.362297 0.022176 0.438858 -0.549311 0.452551 0.702464 255 255 255
-2.143749 1.344736 -0.242280 -0.549311 0.452551 0.702464 255 255 255
-2.169498 -1.537314 -0.246437 -0.544259 -0.392986 0.741177 255 255 255
-2.362297 0.022176 0.438858 -0.544259 -0.392986 0.741177 255 255 255
-2.896610 0.000492 0.035006 -0.544259 -0.392986 0.741177 255 255 255
-1.432972 0.807422 0.268306 0.155460 0.641134 0.751518 255 255 255
-1.447722 0.383901 0.632670 0.155460 0.641134 0.751518 255 255 255
-0.629338 0.186664 0.631645 0.155460 0.641134 0.751518 255 255 255
-2.362297 0.022176 0.438858 -0.455967 -0.525796 0.718076 255 255 255
-1.458721 -1.000000 0.264149 -0.455967 -0.525796 0.718076 255 255 255
-1.460288 -0.498125 0.630642 -0.455967 -0.525796 0.718076 255 255 255
-0.764995 -0.456898 0.566251 0.098657 -0.121161 0.987718 255 255 255
-0.629338 0.186664 0.631645 0.098657 -0.121161 0.987718 255 255 255
-1.460288 -0.498125 0.630642 0.098657 -0.121161 0.987718 255 255 255
-1.458721 -1.000000 0.264149 -0.080147 -0.404405 0.911061 255 255 255
-0.549595 -1.035434 0.328396 -0.080147 -0.404405 0.911061 255 255 255
-0.764995 -0.456898 0.566251 -0.080147 -0.404405 0.911061 255 255 255
-1.447722 0.383901 0.632670 -0.207579 0.000707 0.978218 255 255 255
-2.362297 0.022176 0.438858 -0.207579 0.000707 0.978218 255 255 255
-1.460288 -0.498125 0.630642 -0.207579 0.000707 0.978218 255 255 255
-1.432972 0.807422 0.268306 -0.387513 0.608940 0.692117 255 255 255
-2.362297 0.022176 0.438858 -0.387513 0.608940 0.692117 255 255 255
-1.447722 0.383901 0.632670 -0.387513 0.608940 0.692117 255 255 255
-0.629338 0.186664 0.631645 0.000696 -0.002310 0.999997 255 255 255
-1.447722 0.383901 0.632670 0.000696 -0.002310 0.999997 255 255 255
-1.460288 -0.498125 0.630642 0.000696 -0.002310 0.999997 255 255 255
-0.549595 -1.035434 0.328396 0.417948 -0.207972 0.884346 255 255 255
-0.135889 -0.000000 0.376379 0.417948 -0.207972 0.884346 255 255 255
-0.764995 -0.456898 0.566251 0.417948 -0.207972 0.884346 255 255 255
-0.339049 0.808347 0.205461 0.047451 0.549622 0.834065 255 255 255
-1.432972 0.807422 0.268306 0.047451 0.549622 0.834065 255 255 255
-0.629338 0.186664 0.631645 0.047451 0.549622 0.834065 255 255 255
-1.460288 -0.498125 0.630642 0.109106 -0.585999 0.802933 255 255 255
-1.458721 -1.000000 0.264149 0.109106 -0.585999 0.802933 255 255 255
-0.764995 -0.456898 0.566251 0.109106 -0.585999 0.802933 255 255 255
3 0 1 2
3 3 4 5
3 6 7 8
3 9 10 11
3 12 13 14
3 15 16 17
3 18 19 20
3 21 22 23
3 24 25 26
3 27 28 29
3 30 31 32
3 33 34 35
3 36 37 38
3 39 40 41
3 42 43 44
3 45 46 47
3 48 49 50
3 51 52 53
3 54 55 56
3 57 58 59
3 60 61 62
3 63 64 65
3 66 67 68
3 69 70 71
3 72 73 74
3 75 76 77
3 78 79 80
3 81 82 83
3 84 85 86
3 87 88 89
3 90 91 92
3 93 94 95
3 96 97 98
3 99 100 101
3 102 103 104
3 105 106 107
3 108 109 110
3 111 112 113
3 114 115 116
3 117 118 119
3 120 121 122
3 123 124 125
3 126 127 128
3 129 130 131
3 132 133 134
3 135 134 136
3 137 138 139
3 140 141 142
3 143 144 145
3 146 147 148
3 149 150 151
3 152 153 154
3 155 156 157
3 158 159 160
3 161 162 163
3 164 165 166
3 167 168 169
3 170 171 172
3 173 174 175
3 176 177 178
3 179 180 181
3 182 183 184
3 185 186 187
3 188 189 190
3 191 39 41
3 192 193 194
3 195 196 197
3 198 199 200
3 201 202 203
3 204 205 206
3 207 208 209
3 210 211 212
3 213 214 215
3 216 217 218
3 219 220 221
3 222 223 224
3 225 226 227
3 228 229 230
3 231 232 233
3 234 78 80
3 235 236 237
3 238 239 240
3 241 242 243
3 244 245 246
3 247 248 249
3 250 96 98
3 251 252 253
3 254 255 256
3 257 258 259
3 260 261 262
3 263 264 265
3 266 114 116
3 267 117 119
3 268 269 270
3 271 123 125
3 272 126 128
3 273 274 275
3 135 132 134
3 276 135 136
3 277 278 279
3 280 281 282
3 283 143 145
3 284 285 286
3 287 288 289
3 290 291 292
3 293 294 295
3 296 297 298
3 299 300 301
3 302 303 304
3 305 306 307
3 308 309 310
3 311 312 313
3 314 315 316
3 317 318 319
3 320 321 322
3 323 324 325
3 326 327 328
3 329 330 331
