ply
format ascii 1.0
comment Created by Blender 2.76 (sub 0) - www.blender.org, source file: 'throne2.blend'
element vertex 375
property float x
property float y
property float z
property float nx
property float ny
property float nz
property uchar red
property uchar green
property uchar blue
element face 268
property list uchar uint vertex_indices
end_header
-0.989751 -0.847601 2.000000 1.000000 0.000001 -0.000000 255 36 38
-0.989751 -0.847601 0.000000 1.000000 0.000001 -0.000000 255 36 38
-0.989751 -0.647601 0.000000 1.000000 0.000001 -0.000000 255 36 38
-1.211544 0.000000 2.000000 -0.978092 0.208175 0.000000 99 78 53
-0.998933 0.998934 2.000000 -0.978092 0.208175 0.000000 99 78 53
-0.998933 0.998934 0.000000 -0.978092 0.208175 0.000000 99 78 53
0.306925 0.000000 0.908051 1.000000 0.000000 0.000000 255 196 93
0.306925 -0.309058 0.908051 1.000000 0.000000 0.000000 255 196 93
0.306925 -0.309058 0.797465 1.000000 0.000000 0.000000 255 196 93
-1.424609 -1.001066 2.000000 0.000000 0.000000 1.000000 99 78 53
-1.189751 -0.847601 2.000000 0.000000 0.000000 1.000000 99 78 53
-1.189751 -0.647601 2.000000 0.000000 0.000000 1.000000 99 78 53
-1.189751 -0.847601 2.000000 0.000001 -1.000000 0.000000 255 36 38
-1.189751 -0.847601 0.000000 0.000001 -1.000000 0.000000 255 36 38
-0.989751 -0.847601 0.000000 0.000001 -1.000000 0.000000 255 36 38
-1.189751 -0.647601 2.000000 -1.000000 0.000000 0.000000 255 36 38
-1.189751 -0.647601 0.000000 -1.000000 0.000000 0.000000 255 36 38
-1.189751 -0.847601 0.000000 -1.000000 0.000000 0.000000 255 36 38
-0.989751 -0.647601 2.000000 0.000000 1.000000 0.000000 255 36 38
-0.989751 -0.647601 0.000000 0.000000 1.000000 0.000000 255 36 38
-1.189751 -0.647601 0.000000 0.000000 1.000000 0.000000 255 36 38
-0.661023 0.852399 2.000000 0.000000 0.000000 1.000000 99 78 53
0.000000 0.998934 2.000000 0.000000 0.000000 1.000000 99 78 53
-0.998933 0.998934 2.000000 0.000000 0.000000 1.000000 99 78 53
-0.861022 0.652399 2.000000 0.000000 -1.000000 0.000000 255 36 38
-0.861022 0.652399 0.000000 0.000000 -1.000000 0.000000 255 36 38
-0.661023 0.652399 0.000000 0.000000 -1.000000 0.000000 255 36 38
0.998933 0.998934 0.000000 0.978092 0.208175 0.000000 99 78 53
0.998933 0.998934 2.000000 0.978092 0.208175 0.000000 99 78 53
1.211544 0.000000 2.000000 0.978092 0.208175 0.000000 99 78 53
1.189751 -0.847601 0.000000 1.000000 0.000000 0.000000 255 36 38
1.189751 -0.647601 0.000000 1.000000 0.000000 0.000000 255 36 38
1.189751 -0.647601 2.000000 1.000000 0.000000 0.000000 255 36 38
1.424609 -1.001066 2.000000 -0.000000 0.000000 1.000000 99 78 53
1.211544 0.000000 2.000000 -0.000000 0.000000 1.000000 99 78 53
1.189751 -0.647601 2.000000 -0.000000 0.000000 1.000000 99 78 53
1.189751 -0.647601 0.000000 -0.000000 1.000000 0.000000 255 36 38
0.989751 -0.647601 0.000000 -0.000000 1.000000 0.000000 255 36 38
0.989751 -0.647601 2.000000 -0.000000 1.000000 0.000000 255 36 38
0.508934 0.000000 0.000000 1.000000 0.000000 0.000000 255 196 93
0.508934 0.508934 0.000000 1.000000 0.000000 0.000000 255 196 93
0.508934 0.508934 0.183600 1.000000 0.000000 0.000000 255 196 93
0.661023 0.852399 0.000000 -1.000000 0.000000 0.000000 255 36 38
0.661023 0.652399 0.000000 -1.000000 0.000000 0.000000 255 36 38
0.661023 0.652399 2.000000 -1.000000 0.000000 0.000000 255 36 38
0.989751 -0.847601 0.000000 -0.000001 -1.000000 -0.000000 255 36 38
1.189751 -0.847601 0.000000 -0.000001 -1.000000 -0.000000 255 36 38
1.189751 -0.847601 2.000000 -0.000001 -1.000000 -0.000000 255 36 38
-0.989751 -0.647601 2.000000 0.000000 0.000000 1.000000 99 78 53
-0.989751 -0.847601 2.000000 0.000000 0.000000 1.000000 99 78 53
0.000000 -1.001066 2.000000 0.000000 0.000000 1.000000 99 78 53
0.306925 0.000000 0.908051 0.000000 -0.000000 1.000000 255 196 93
0.165446 0.000000 0.908051 0.000000 -0.000000 1.000000 255 196 93
0.165446 -0.167579 0.908051 0.000000 -0.000000 1.000000 255 196 93
0.482484 0.000000 0.797465 0.000000 0.000000 1.000000 255 196 93
0.306925 0.000000 0.797465 0.000000 0.000000 1.000000 255 196 93
0.306925 -0.309058 0.797465 0.000000 0.000000 1.000000 255 196 93
-0.661023 0.652399 2.000000 1.000000 0.000000 -0.000000 255 36 38
-0.661023 0.652399 0.000000 1.000000 0.000000 -0.000000 255 36 38
-0.661023 0.852399 0.000000 1.000000 0.000000 -0.000000 255 36 38
-0.306925 -0.309058 0.797465 -1.000000 -0.000000 -0.000000 255 196 93
-0.306925 -0.309058 0.908051 -1.000000 -0.000000 -0.000000 255 196 93
-0.306925 0.000000 0.908051 -1.000000 -0.000000 -0.000000 255 196 93
-0.306925 0.000000 0.908051 0.000000 -0.000000 1.000000 255 196 93
-0.306925 -0.309058 0.908051 0.000000 -0.000000 1.000000 255 196 93
-0.165446 -0.167579 0.908051 0.000000 -0.000000 1.000000 255 196 93
-0.508934 0.508934 0.183600 -1.000000 0.000000 0.000000 255 196 93
-0.508934 0.508934 0.000000 -1.000000 0.000000 0.000000 255 196 93
-0.508934 0.000000 0.000000 -1.000000 0.000000 0.000000 255 196 93
-0.482484 0.000000 0.797465 0.000000 0.000000 1.000000 255 196 93
-0.482484 -0.484617 0.797465 0.000000 0.000000 1.000000 255 196 93
-0.306925 -0.309058 0.797465 0.000000 0.000000 1.000000 255 196 93
-0.165446 -0.167579 0.908051 -1.000000 0.000000 0.000000 255 196 93
-0.165446 -0.167579 1.030487 -1.000000 0.000000 0.000000 255 196 93
-0.165446 0.000000 1.030487 -1.000000 0.000000 0.000000 255 196 93
-0.482484 -0.484617 0.651332 -1.000000 -0.000000 -0.000000 255 196 93
-0.482484 -0.484617 0.797465 -1.000000 -0.000000 -0.000000 255 196 93
-0.482484 0.000000 0.797465 -1.000000 -0.000000 -0.000000 255 196 93
-0.247652 0.247652 0.651332 -1.000000 -0.000000 0.000000 255 196 93
-0.247652 0.247652 0.183600 -1.000000 -0.000000 0.000000 255 196 93
-0.247652 0.000000 0.183600 -1.000000 -0.000000 0.000000 255 196 93
0.508934 0.000000 0.183600 -0.000000 0.000000 1.000000 255 196 93
0.508934 0.508934 0.183600 -0.000000 0.000000 1.000000 255 196 93
0.247652 0.247652 0.183600 -0.000000 0.000000 1.000000 255 196 93
0.247652 -0.249784 0.183600 0.000000 0.000000 1.000000 255 196 93
0.508934 -0.511067 0.183600 0.000000 0.000000 1.000000 255 196 93
1.189751 -0.647601 0.000000 -0.000001 -0.000000 -1.000000 99 78 53
1.211544 0.000000 0.000000 -0.000001 -0.000000 -1.000000 99 78 53
1.424608 -1.001066 0.000000 -0.000001 -0.000000 -1.000000 99 78 53
-0.508934 -0.511067 0.183600 0.000000 -1.000000 0.000000 255 196 93
-0.508934 -0.511067 0.000000 0.000000 -1.000000 0.000000 255 196 93
0.000000 -0.511067 0.000000 0.000000 -1.000000 0.000000 255 196 93
-0.247652 -0.249784 0.651332 0.000000 -1.000000 0.000000 255 196 93
-0.247652 -0.249784 0.183600 0.000000 -1.000000 0.000000 255 196 93
0.000000 -0.249784 0.183600 0.000000 -1.000000 0.000000 255 196 93
0.000000 -0.484617 0.651332 0.000000 -1.000000 0.000000 255 196 93
0.000000 -0.484617 0.797465 0.000000 -1.000000 0.000000 255 196 93
-0.482484 -0.484617 0.797465 0.000000 -1.000000 0.000000 255 196 93
0.000000 -0.167579 0.908051 -0.000000 -1.000000 -0.000000 255 196 93
0.000000 -0.167579 1.030487 -0.000000 -1.000000 -0.000000 255 196 93
-0.165446 -0.167579 1.030487 -0.000000 -1.000000 -0.000000 255 196 93
0.000000 0.247652 0.651332 -0.000000 1.000000 0.000000 255 196 93
0.000000 0.247652 0.183600 -0.000000 1.000000 0.000000 255 196 93
-0.247652 0.247652 0.183600 -0.000000 1.000000 0.000000 255 196 93
-0.861022 0.652399 2.000000 0.000000 0.000000 1.000000 99 78 53
-0.861023 0.852399 2.000000 0.000000 0.000000 1.000000 99 78 53
0.000000 -0.484617 0.797465 -0.000000 0.000000 1.000000 255 196 93
0.000000 -0.309058 0.797465 -0.000000 0.000000 1.000000 255 196 93
-0.306925 0.306925 0.797465 0.000000 1.000000 0.000000 255 196 93
-0.306925 0.306925 0.908051 0.000000 1.000000 0.000000 255 196 93
0.000000 0.306925 0.908051 0.000000 1.000000 0.000000 255 196 93
0.000000 0.306925 0.908051 0.000000 -0.000000 1.000000 255 196 93
-0.306925 0.306925 0.908051 0.000000 -0.000000 1.000000 255 196 93
-0.165446 0.165446 0.908051 0.000000 -0.000000 1.000000 255 196 93
-0.482484 0.482484 0.651332 -0.000000 1.000000 0.000000 255 196 93
-0.482484 0.482484 0.797465 -0.000000 1.000000 0.000000 255 196 93
0.000000 0.482484 0.797465 -0.000000 1.000000 0.000000 255 196 93
-0.661023 0.652399 2.000000 0.000000 0.000000 1.000000 99 78 53
0.000000 0.000000 2.000000 0.000000 0.000000 1.000000 99 78 53
0.247652 0.247652 0.651332 -0.000000 0.000000 -1.000000 255 196 93
0.482484 0.482484 0.651332 -0.000000 0.000000 -1.000000 255 196 93
0.482484 0.000000 0.651332 -0.000000 0.000000 -1.000000 255 196 93
0.165446 0.165446 0.908051 0.000000 -0.000000 1.000000 255 196 93
0.000000 -0.511067 0.183600 -0.000000 0.000000 1.000000 255 196 93
0.000000 -0.249784 0.183600 -0.000000 0.000000 1.000000 255 196 93
-0.247652 -0.249784 0.183600 -0.000000 0.000000 1.000000 255 196 93
1.211544 0.000000 0.000000 0.978092 0.208175 -0.000000 99 78 53
1.424609 -1.001066 2.000000 0.978092 0.208175 -0.000000 99 78 53
0.165446 0.000000 1.030487 1.000000 0.000000 -0.000000 255 196 93
0.165446 -0.167579 1.030487 1.000000 0.000000 -0.000000 255 196 93
0.165446 -0.167579 0.908051 1.000000 0.000000 -0.000000 255 196 93
-0.661023 0.852399 2.000000 -0.000000 1.000000 0.000000 255 36 38
-0.661023 0.852399 0.000000 -0.000000 1.000000 0.000000 255 36 38
-0.861023 0.852399 0.000000 -0.000000 1.000000 0.000000 255 37 39
0.247652 0.000000 0.183600 1.000000 -0.000000 0.000000 255 196 93
0.247652 0.247652 0.183600 1.000000 -0.000000 0.000000 255 196 93
0.247652 0.247652 0.651332 1.000000 -0.000000 0.000000 255 196 93
0.000000 0.482484 0.797465 0.000000 -0.000000 1.000000 255 196 93
-0.482484 0.482484 0.797465 0.000000 -0.000000 1.000000 255 196 93
-0.306925 0.306925 0.797465 0.000000 -0.000000 1.000000 255 196 93
-0.998933 0.998934 2.000000 0.000000 1.000000 -0.000000 99 78 53
0.000000 0.998934 2.000000 0.000000 1.000000 -0.000000 99 78 53
0.000000 0.998933 0.000000 0.000000 1.000000 -0.000000 99 78 53
0.000000 -0.309058 0.908051 0.000000 0.000000 1.000000 255 196 93
0.000000 -0.167579 0.908051 0.000000 0.000000 1.000000 255 196 93
-0.247652 0.247652 0.651332 0.000000 -0.000000 -1.000000 255 196 93
-0.482484 0.482484 0.651332 0.000000 -0.000000 -1.000000 255 196 93
0.000000 0.482484 0.651332 0.000000 -0.000000 -1.000000 255 196 93
0.000000 0.508934 0.183600 0.000000 1.000000 0.000000 255 196 93
0.000000 0.508934 0.000000 0.000000 1.000000 0.000000 255 196 93
-0.508934 0.508934 0.000000 0.000000 1.000000 0.000000 255 196 93
0.000000 0.508934 0.183600 0.000000 -0.000000 1.000000 255 196 93
-0.508934 0.508934 0.183600 0.000000 -0.000000 1.000000 255 196 93
-0.247652 0.247652 0.183600 0.000000 -0.000000 1.000000 255 196 93
-0.165446 0.165446 0.908051 0.000000 1.000000 0.000000 255 196 93
-0.165446 0.165446 1.030487 0.000000 1.000000 0.000000 255 196 93
0.000000 0.165446 1.030487 0.000000 1.000000 0.000000 255 196 93
0.000000 0.000000 1.030487 -0.000000 0.000000 1.000000 255 196 93
0.000000 0.165446 1.030487 -0.000000 0.000000 1.000000 255 196 93
-0.165446 0.165446 1.030487 -0.000000 0.000000 1.000000 255 196 93
0.000000 -0.309058 0.797465 0.000000 -1.000000 0.000000 255 196 93
0.000000 -0.309058 0.908051 0.000000 -1.000000 0.000000 255 196 93
-0.306925 -0.309058 0.908051 0.000000 -1.000000 0.000000 255 196 93
-0.247652 -0.249784 0.651332 -0.000000 0.000000 -1.000000 255 196 93
0.000000 -0.249784 0.651332 -0.000000 0.000000 -1.000000 255 196 93
0.000000 -0.484617 0.651332 -0.000000 0.000000 -1.000000 255 196 93
0.482484 0.000000 0.797465 1.000000 -0.000000 0.000000 255 196 93
0.482484 -0.484617 0.797465 1.000000 -0.000000 0.000000 255 196 93
0.482484 -0.484617 0.651332 1.000000 -0.000000 0.000000 255 196 93
0.306925 0.306925 0.797465 0.000000 -0.000000 1.000000 255 196 93
0.861022 0.652399 2.000000 0.000000 0.000000 1.000000 99 78 53
0.998933 0.998934 2.000000 0.000000 0.000000 1.000000 99 78 53
-0.482484 -0.484617 0.651332 0.000000 0.000000 -1.000000 255 196 93
-0.482484 0.000000 0.651332 0.000000 0.000000 -1.000000 255 196 93
0.989751 -0.647601 0.000000 -1.000000 0.000001 0.000000 255 36 38
0.989751 -0.847601 0.000000 -1.000000 0.000001 0.000000 255 36 38
0.989751 -0.847601 2.000000 -1.000000 0.000001 0.000000 255 36 38
0.661023 0.652399 0.000000 -0.000000 -1.000000 -0.000000 255 36 38
0.861022 0.652399 0.000000 -0.000000 -1.000000 -0.000000 255 36 38
0.861022 0.652399 2.000000 -0.000000 -1.000000 -0.000000 255 36 38
0.861022 0.652399 0.000000 1.000000 -0.000000 0.000000 255 36 38
0.861023 0.852399 0.000000 1.000000 -0.000000 0.000000 255 36 38
0.861023 0.852399 2.000000 1.000000 -0.000000 0.000000 255 36 38
-0.861023 0.852399 2.000000 -1.000000 -0.000000 0.000000 255 36 38
-0.861023 0.852399 0.000000 -1.000000 -0.000000 0.000000 255 36 38
-0.861022 0.652399 0.000000 -1.000000 -0.000000 0.000000 255 36 38
0.306925 0.306925 0.908051 1.000000 0.000000 0.000000 255 196 93
0.306925 0.000000 0.797465 1.000000 0.000000 0.000000 255 196 93
1.211544 0.000000 0.000000 0.000000 -0.000000 -1.000000 99 78 53
1.189751 -0.647601 0.000000 0.000000 -0.000000 -1.000000 99 78 53
0.989751 -0.647601 0.000000 0.000000 -0.000000 -1.000000 99 78 53
0.247652 -0.249784 0.183600 1.000000 -0.000000 0.000000 255 196 93
0.247652 0.000000 0.651332 1.000000 -0.000000 0.000000 255 196 93
0.508934 -0.511067 0.000000 0.000000 0.000000 -1.000000 99 78 53
0.508934 0.000000 0.000000 0.000000 0.000000 -1.000000 99 78 53
0.508934 -0.511067 0.000000 1.000000 0.000000 0.000000 255 196 93
0.508934 0.000000 0.183600 1.000000 0.000000 0.000000 255 196 93
0.000000 -0.167579 1.030487 -0.000000 0.000000 1.000000 255 196 93
-0.165446 0.000000 1.030487 -0.000000 0.000000 1.000000 255 196 93
0.482484 0.482484 0.797465 1.000000 0.000000 0.000000 255 196 93
0.482484 0.000000 0.651332 1.000000 0.000000 0.000000 255 196 93
0.165446 0.165446 1.030487 1.000000 0.000000 0.000000 255 196 93
0.165446 0.000000 0.908051 1.000000 0.000000 0.000000 255 196 93
-0.165446 0.000000 0.908051 0.000000 0.000000 1.000000 255 196 93
-0.165446 0.000000 0.908051 -1.000000 -0.000000 -0.000000 255 196 93
-0.165446 0.165446 1.030487 -1.000000 -0.000000 -0.000000 255 196 93
0.482484 -0.484617 0.651332 0.000000 0.000000 -1.000000 255 196 93
0.247652 -0.249784 0.651332 0.000000 0.000000 -1.000000 255 196 93
-0.508934 0.000000 0.183600 0.000000 0.000000 1.000000 255 196 93
-0.247652 0.000000 0.183600 0.000000 0.000000 1.000000 255 196 93
-0.482484 0.000000 0.651332 -1.000000 -0.000000 -0.000000 255 196 93
-0.482484 0.482484 0.797465 -1.000000 -0.000000 -0.000000 255 196 93
-0.247652 0.000000 0.651332 0.000000 0.000000 -1.000000 255 196 93
-0.306925 0.000000 0.797465 -1.000000 -0.000000 -0.000000 255 196 93
-0.306925 0.306925 0.908051 -1.000000 -0.000000 -0.000000 255 196 93
-0.306925 0.000000 0.797465 0.000000 0.000000 1.000000 255 196 93
-0.247652 0.000000 0.651332 -1.000000 -0.000000 0.000000 255 196 93
-0.247652 -0.249784 0.183600 -1.000000 -0.000000 0.000000 255 196 93
-1.211544 0.000000 2.000000 0.000000 0.000000 1.000000 99 78 53
0.861023 0.852399 0.000000 0.000000 1.000000 0.000000 255 36 38
0.661023 0.852399 0.000000 0.000000 1.000000 0.000000 255 36 38
0.661023 0.852399 2.000000 0.000000 1.000000 0.000000 255 36 38
-1.424609 -1.001066 2.000000 -0.978092 0.208175 -0.000000 99 78 53
-1.211544 0.000000 0.000000 -0.978092 0.208175 -0.000000 99 78 53
-0.508934 0.000000 0.183600 -1.000000 0.000000 0.000000 255 196 93
-0.508934 -0.511067 0.000000 -1.000000 0.000000 0.000000 255 196 93
-0.508934 -0.511067 0.183600 0.000000 -0.000000 1.000000 255 196 93
-1.424608 -1.001066 0.000000 0.000001 -0.000000 -1.000000 99 78 53
-1.211544 0.000000 0.000000 0.000001 -0.000000 -1.000000 99 78 53
-1.189751 -0.647601 0.000000 0.000001 -0.000000 -1.000000 99 78 53
-0.989751 -0.647601 0.000000 0.000000 -0.000000 -1.000000 99 78 53
-1.189751 -0.647601 0.000000 0.000000 -0.000000 -1.000000 99 78 53
-1.211544 0.000000 0.000000 0.000000 -0.000000 -1.000000 99 78 53
-0.508934 0.000000 0.000000 -0.000000 0.000000 -1.000000 99 78 53
-0.508934 -0.511067 0.000000 -0.000000 0.000000 -1.000000 99 78 53
-0.989751 -0.847601 0.000000 -0.000000 -0.000000 -1.000000 99 78 53
0.000000 -1.001066 0.000000 -0.000000 -0.000000 -1.000000 99 78 53
0.000000 -0.511067 0.000000 0.000000 0.000000 -1.000000 99 78 53
-1.424608 -1.001066 0.000000 -0.000000 0.000001 -1.000000 99 78 53
-1.189751 -0.847601 0.000000 -0.000000 0.000001 -1.000000 99 78 53
-0.989751 -0.847601 0.000000 -0.000000 0.000001 -1.000000 99 78 53
-0.661023 0.852399 0.000000 -0.000000 0.000000 -1.000000 99 78 53
0.000000 0.998933 0.000000 -0.000000 0.000000 -1.000000 99 78 53
-0.508934 0.508934 0.000000 -0.000000 0.000000 -1.000000 99 78 53
-0.661023 0.852399 0.000000 0.000000 -0.000001 -1.000000 99 78 53
-0.861023 0.852399 0.000000 0.000000 -0.000001 -1.000000 99 78 53
-0.998933 0.998934 0.000000 0.000000 -0.000001 -1.000000 99 78 53
-0.998933 0.998934 0.000000 0.000001 0.000000 -1.000000 99 78 53
-0.861023 0.852399 0.000000 0.000001 0.000000 -1.000000 99 78 53
-0.861022 0.652399 0.000000 0.000001 0.000000 -1.000000 99 78 53
-0.861022 0.652399 0.000000 -0.000000 0.000000 -1.000000 99 78 53
-0.861022 0.652399 0.000000 -0.000000 0.000001 -1.000000 99 78 53
-0.661023 0.652399 0.000000 -0.000000 0.000001 -1.000000 99 78 53
-0.508934 0.508934 0.000000 -0.000000 0.000001 -1.000000 99 78 53
0.000000 0.508934 0.000000 0.000000 -0.000000 -1.000000 99 78 53
-0.661023 0.652399 0.000000 -0.000001 -0.000000 -1.000000 99 78 53
-0.661023 0.852399 0.000000 -0.000001 -0.000000 -1.000000 99 78 53
-0.508934 0.508934 0.000000 -0.000001 -0.000000 -1.000000 99 78 53
0.989751 -0.847601 0.000000 0.000000 -0.000000 -1.000000 99 78 53
0.998933 0.998934 0.000000 -0.000001 -0.000000 -1.000000 99 78 53
0.861022 0.652399 0.000000 -0.000001 -0.000000 -1.000000 99 78 53
0.861022 0.652399 0.000000 0.000000 0.000000 -1.000000 99 78 53
0.508934 0.508934 0.000000 0.000000 0.000000 -1.000000 99 78 53
0.861022 0.652399 0.000000 0.000000 0.000001 -1.000000 99 78 53
0.508934 0.508934 0.000000 0.000000 0.000001 -1.000000 99 78 53
0.661023 0.652399 0.000000 0.000000 0.000001 -1.000000 99 78 53
0.661023 0.652399 0.000000 0.000001 -0.000000 -1.000000 99 78 53
0.508934 0.508934 0.000000 0.000001 -0.000000 -1.000000 99 78 53
0.661023 0.852399 0.000000 0.000001 -0.000000 -1.000000 99 78 53
0.661023 0.852399 2.000000 0.000000 -0.000000 1.000000 99 78 53
0.989751 -0.847601 2.000000 0.000000 0.000000 1.000000 99 78 53
0.989751 -0.647601 2.000000 0.000000 0.000000 1.000000 99 78 53
0.000000 0.306925 0.797465 0.000000 -0.000000 1.000000 255 196 93
0.165446 0.165446 1.030487 0.000000 1.000000 -0.000000 255 196 93
0.165446 0.165446 0.908051 0.000000 1.000000 -0.000000 255 196 93
0.482484 -0.484617 0.797465 0.000000 -1.000000 0.000000 255 196 93
0.508934 -0.511067 0.000000 -0.000000 -1.000000 -0.000000 255 196 93
0.508934 -0.511067 0.183600 -0.000000 -1.000000 -0.000000 255 196 93
0.000000 0.165446 0.908051 0.000000 -0.000000 1.000000 255 196 93
0.661023 0.652399 2.000000 0.000000 -0.000000 1.000000 99 78 53
0.247652 0.247652 0.183600 0.000000 1.000000 0.000000 255 196 93
0.306925 -0.309058 0.908051 0.000000 -1.000000 0.000000 255 196 93
0.306925 0.306925 0.908051 0.000000 1.000000 -0.000000 255 196 93
0.306925 0.306925 0.797465 0.000000 1.000000 -0.000000 255 196 93
0.482484 0.482484 0.797465 0.000000 1.000000 -0.000000 255 196 93
0.482484 0.482484 0.651332 0.000000 1.000000 -0.000000 255 196 93
0.247652 -0.249784 0.183600 -0.000000 -1.000000 -0.000000 255 196 93
0.247652 -0.249784 0.651332 -0.000000 -1.000000 -0.000000 255 196 93
0.165446 -0.167579 1.030487 0.000000 -1.000000 0.000000 255 196 93
0.165446 0.165446 1.030487 0.000000 0.000000 1.000000 255 196 93
0.165446 0.000000 1.030487 0.000000 0.000000 1.000000 255 196 93
0.998933 0.998934 2.000000 -0.000000 1.000000 -0.000000 99 78 53
0.508934 0.508934 0.000000 -0.000000 1.000000 0.000000 255 196 93
1.424608 -1.001066 0.000000 0.000000 0.000001 -1.000000 99 78 53
0.000000 -1.001066 0.000000 0.000000 0.000001 -1.000000 99 78 53
0.989751 -0.847601 0.000000 0.000000 0.000001 -1.000000 99 78 53
0.661023 0.852399 0.000000 0.000000 0.000000 -1.000000 99 78 53
0.998933 0.998934 0.000000 -0.000000 -0.000001 -1.000000 111 91 68
0.861023 0.852399 0.000000 -0.000000 -0.000001 -1.000000 99 79 54
0.661023 0.852399 0.000000 -0.000000 -0.000001 -1.000000 108 88 64
-0.989751 -0.647601 2.000000 1.000000 0.000001 0.000000 255 36 38
-1.211544 0.000000 0.000000 -0.978092 0.208174 -0.000000 99 78 53
-1.211544 0.000000 2.000000 -0.978092 0.208174 -0.000000 99 78 53
-0.998933 0.998934 0.000000 -0.978092 0.208174 -0.000000 99 78 53
-0.989751 -0.847601 2.000000 0.000001 -1.000000 0.000000 255 36 38
-1.189751 -0.847601 2.000000 -1.000000 0.000000 0.000000 255 36 38
-1.189751 -0.647601 2.000000 0.000000 1.000000 -0.000000 255 36 38
-0.661023 0.652399 2.000000 0.000000 -1.000000 0.000000 255 36 38
1.211544 0.000000 0.000000 0.978092 0.208174 -0.000000 99 78 53
0.998933 0.998934 0.000000 0.978092 0.208174 -0.000000 99 78 53
1.211544 0.000000 2.000000 0.978092 0.208174 -0.000000 99 78 53
1.189751 -0.847601 2.000000 1.000000 0.000000 -0.000000 255 36 38
1.189751 -0.847601 2.000000 0.000000 0.000000 1.000000 99 78 53
1.189751 -0.647601 2.000000 -0.000000 1.000000 0.000000 255 36 38
0.661023 0.852399 2.000000 -1.000000 0.000000 0.000000 255 36 38
0.989751 -0.847601 2.000000 -0.000001 -1.000000 0.000000 255 36 38
0.306925 -0.309058 0.908051 -0.000000 0.000000 1.000000 255 196 93
0.482484 -0.484617 0.797465 -0.000000 0.000000 1.000000 255 196 93
-0.661023 0.852399 2.000000 1.000000 0.000000 0.000000 255 36 38
0.247652 0.000000 0.183600 0.000000 0.000000 1.000000 255 196 93
1.189751 -0.847601 0.000000 -0.000001 -0.000000 -1.000000 99 78 53
0.000000 -0.511067 0.183600 0.000000 -1.000000 0.000000 255 196 93
0.000000 -0.249784 0.651332 0.000000 -1.000000 0.000000 255 196 93
-0.482484 -0.484617 0.651332 -0.000000 -1.000000 -0.000000 255 196 93
-0.165446 -0.167579 0.908051 -0.000000 -1.000000 0.000000 255 196 93
-0.247652 0.247652 0.651332 -0.000000 1.000000 0.000000 255 196 93
0.000000 0.306925 0.797465 -0.000000 1.000000 0.000000 255 196 93
0.000000 0.482484 0.651332 -0.000000 1.000000 0.000000 255 196 93
0.247652 0.000000 0.651332 -0.000000 0.000000 -1.000000 255 196 93
0.306925 0.306925 0.908051 0.000000 -0.000000 1.000000 255 196 93
1.424608 -1.001066 0.000000 0.978092 0.208174 -0.000001 99 78 53
1.211544 0.000000 0.000000 0.978092 0.208174 -0.000001 99 78 53
1.424609 -1.001066 2.000000 0.978092 0.208174 -0.000001 99 78 53
-0.861023 0.852399 2.000000 -0.000000 1.000000 0.000000 255 36 38
-0.861023 0.852399 0.000000 -0.000000 1.000000 0.000000 255 38 40
-0.998933 0.998934 0.000000 0.000000 1.000000 -0.000000 99 78 53
0.000000 0.247652 0.651332 0.000000 -0.000000 -1.000000 255 196 93
-0.508934 0.508934 0.183600 0.000000 1.000000 -0.000000 255 196 93
0.000000 0.247652 0.183600 -0.000000 0.000000 1.000000 255 196 93
0.000000 0.165446 0.908051 -0.000000 1.000000 0.000000 255 196 93
-0.306925 -0.309058 0.797465 -0.000000 -1.000000 -0.000000 255 196 93
0.482484 0.482484 0.797465 0.000000 -0.000000 1.000000 255 196 93
0.861023 0.852399 2.000000 0.000000 -0.000000 1.000000 99 78 53
0.989751 -0.647601 2.000000 -1.000000 0.000001 0.000000 255 36 38
0.661023 0.652399 2.000000 -0.000000 -1.000000 0.000000 255 36 38
0.861022 0.652399 2.000000 1.000000 -0.000000 0.000000 255 36 38
-0.861022 0.652399 2.000000 -1.000000 -0.000000 0.000000 255 36 38
0.306925 0.306925 0.797465 1.000000 -0.000000 0.000000 255 196 93
0.247652 -0.249784 0.651332 1.000000 -0.000000 0.000000 255 196 93
0.508934 -0.511067 0.183600 1.000000 0.000000 -0.000000 255 196 93
-0.165446 -0.167579 1.030487 0.000000 0.000000 1.000000 255 196 93
0.482484 0.482484 0.651332 1.000000 -0.000000 0.000000 255 196 93
0.165446 0.165446 0.908051 1.000000 -0.000000 0.000000 255 196 93
-0.165446 0.165446 0.908051 -1.000000 0.000000 -0.000000 255 196 93
-0.482484 0.482484 0.651332 -1.000000 0.000000 -0.000000 255 196 93
-0.306925 0.306925 0.797465 -1.000000 0.000000 -0.000000 255 196 93
-0.247652 -0.249784 0.651332 -1.000000 -0.000000 0.000000 255 196 93
0.861023 0.852399 2.000000 0.000000 1.000000 -0.000000 255 36 38
-1.424608 -1.001066 0.000000 -0.978092 0.208174 -0.000001 99 78 53
-1.424609 -1.001066 2.000000 -0.978092 0.208174 -0.000001 99 78 53
-1.211544 0.000000 0.000000 -0.978092 0.208174 -0.000001 99 78 53
-0.508934 -0.511067 0.183600 -1.000000 0.000000 0.000000 255 196 93
-1.189751 -0.847601 0.000000 0.000001 0.000000 -1.000000 99 78 53
0.000000 0.998933 0.000000 -0.000000 -0.000001 -1.000000 99 78 53
0.861023 0.852399 0.000000 -0.000001 0.000000 -1.000000 99 78 53
0.482484 -0.484617 0.651332 0.000000 -1.000000 0.000000 255 196 93
0.247652 0.247652 0.651332 0.000000 1.000000 -0.000000 255 196 93
0.306925 -0.309058 0.797465 0.000000 -1.000000 0.000000 255 196 93
0.165446 -0.167579 0.908051 0.000000 -1.000000 0.000000 255 196 93
0.165446 -0.167579 1.030487 -0.000000 0.000000 1.000000 255 196 93
0.998933 0.998934 0.000000 -0.000000 1.000000 -0.000000 99 78 53
0.508934 0.508934 0.183600 -0.000000 1.000000 0.000000 255 196 93
1.189751 -0.847601 0.000000 0.000000 0.000001 -1.000000 99 78 53
0.998933 0.998934 0.000000 0.000000 -0.000001 -1.000000 99 78 53
0.661023 0.852399 0.000000 0.000000 -0.000001 -1.000000 99 78 53
3 0 1 2
3 3 4 5
3 6 7 8
3 9 10 11
3 12 13 14
3 15 16 17
3 18 19 20
3 21 22 23
3 24 25 26
3 27 28 29
3 30 31 32
3 33 34 35
3 36 37 38
3 39 40 41
3 42 43 44
3 45 46 47
3 48 49 50
3 51 52 53
3 54 55 56
3 57 58 59
3 60 61 62
3 63 64 65
3 66 67 68
3 69 70 71
3 72 73 74
3 75 76 77
3 78 79 80
3 81 82 83
3 84 85 81
3 86 87 88
3 89 90 91
3 92 93 94
3 95 96 97
3 98 99 100
3 101 102 103
3 104 105 23
3 106 107 71
3 108 109 110
3 111 112 113
3 114 115 116
3 117 118 22
3 119 120 121
3 122 52 51
3 123 124 125
3 126 29 127
3 128 129 130
3 131 132 133
3 134 135 136
3 137 138 139
3 140 141 142
3 143 144 65
3 145 146 147
3 148 149 150
3 151 152 153
3 154 155 156
3 157 158 159
3 160 161 162
3 163 164 165
3 166 167 168
3 169 55 54
3 170 34 171
3 163 172 173
3 174 175 176
3 177 178 179
3 180 181 182
3 183 184 185
3 186 6 187
3 188 189 190
3 191 134 192
3 190 193 194
3 195 39 196
3 197 157 198
3 199 166 200
3 201 128 202
3 63 203 113
3 204 74 205
3 121 206 207
3 208 209 153
3 210 77 211
3 145 212 173
3 213 62 214
3 69 215 139
3 216 80 217
3 218 11 48
3 9 50 49
3 219 220 221
3 222 3 223
3 224 68 225
3 208 226 125
3 227 228 229
3 230 231 232
3 230 233 234
3 235 234 236
3 237 236 234
3 235 230 234
3 238 239 240
3 241 242 243
3 244 245 246
3 247 248 249
3 250 243 233
3 233 232 250
3 251 252 253
3 254 243 242
3 255 256 257
3 117 104 218
3 258 193 190
3 259 87 260
3 261 194 262
3 194 261 188
3 263 264 265
3 266 267 268
3 258 236 193
3 83 82 151
3 171 22 269
3 50 270 271
3 34 118 271
3 207 206 165
3 137 272 169
3 156 273 274
3 275 96 95
3 91 276 277
3 56 107 106
3 111 278 122
3 22 118 279
3 280 102 101
3 281 161 160
3 53 144 143
3 123 85 84
3 110 282 283
3 116 284 285
3 94 286 287
3 288 99 98
3 270 50 33
3 289 158 157
3 147 120 119
3 290 157 197
3 142 141 291
3 292 149 148
3 237 193 236
3 293 294 295
3 296 262 242
3 297 298 299
3 254 242 262
3 279 118 34
3 300 0 2
3 301 302 303
3 187 6 8
3 218 9 11
3 304 12 14
3 305 15 17
3 306 18 20
3 105 21 23
3 307 24 26
3 308 309 310
3 311 30 32
3 312 33 35
3 313 36 38
3 196 39 41
3 314 42 44
3 315 45 47
3 118 48 50
3 316 51 53
3 317 54 56
3 318 57 59
3 213 60 62
3 203 63 65
3 224 66 68
3 215 69 71
3 204 72 74
3 210 75 77
3 216 78 80
3 319 81 83
3 319 84 81
3 320 86 88
3 321 89 91
3 322 92 94
3 323 95 97
3 324 98 100
3 325 101 103
3 218 104 23
3 70 106 71
3 326 108 110
3 278 111 113
3 327 114 116
3 21 117 22
3 328 119 121
3 329 122 51
3 226 123 125
3 330 331 332
3 202 128 130
3 333 131 334
3 192 134 136
3 272 137 139
3 335 140 142
3 64 143 65
3 336 145 147
3 337 148 150
3 338 151 153
3 339 154 156
3 198 157 159
3 340 160 162
3 172 163 165
3 200 166 168
3 341 169 54
3 342 170 171
3 212 163 173
3 343 174 176
3 344 177 179
3 345 180 182
3 346 183 185
3 347 186 187
3 194 188 190
3 348 191 192
3 349 195 196
3 350 197 198
3 351 199 200
3 352 201 202
3 112 63 113
3 353 204 205
3 328 121 207
3 152 208 153
3 354 210 211
3 146 145 173
3 355 213 214
3 138 69 139
3 356 216 217
3 118 218 48
3 10 9 49
3 357 219 221
3 358 359 360
3 361 224 225
3 209 208 125
3 362 227 229
3 233 230 232
3 294 238 240
3 363 244 246
3 228 247 249
3 118 117 218
3 364 259 260
3 338 83 151
3 342 171 269
3 118 50 271
3 35 34 271
3 164 207 165
3 341 137 169
3 339 156 274
3 365 275 95
3 321 91 277
3 317 56 106
3 329 111 122
3 269 22 279
3 366 280 101
3 367 281 160
3 316 53 143
3 124 123 84
3 326 110 283
3 327 116 285
3 322 94 287
3 368 288 98
3 312 270 33
3 290 289 157
3 336 147 119
3 369 290 197
3 370 142 291
3 371 292 148
3 372 293 295
3 363 373 374
3 170 279 34
